<svg class="animated" id="freepik_stories-cloud-hosting" xmlns="http://www.w3.org/2000/svg" xmlns:xlink="http://www.w3.org/1999/xlink" viewBox="0 0 500 500" version="1.1" xmlns:svgjs="http://svgjs.com/svgjs"><style>svg#freepik_stories-cloud-hosting:not(.animated) .animable {opacity: 0;}svg#freepik_stories-cloud-hosting.animated #freepik--background-complete--inject-66 {animation: 3s Infinite  linear floating;animation-delay: 0s;}svg#freepik_stories-cloud-hosting.animated #freepik--Shadow--inject-66 {animation: 1s 1 forwards cubic-bezier(.36,-0.01,.5,1.38) slideDown,6s Infinite  linear floating;animation-delay: 0s,1s;}svg#freepik_stories-cloud-hosting.animated #freepik--Cloud--inject-66 {animation: 3s Infinite  linear floating;animation-delay: 0s;}            @keyframes floating {                0% {                    opacity: 1;                    transform: translateY(0px);                }                50% {                    transform: translateY(-10px);                }                100% {                    opacity: 1;                    transform: translateY(0px);                }            }                    @keyframes slideDown {                0% {                    opacity: 0;                    transform: translateY(-30px);                }                100% {                    opacity: 1;                    transform: translateY(0);                }            }        .animator-hidden { display: none; }</style><g id="freepik--background-complete--inject-66" class="animable" style="transform-origin: 250px 226.87px;"><rect y="382.4" width="500" height="0.25" style="fill: rgb(235, 235, 235); transform-origin: 250px 382.525px;" id="elme7rk5oap" class="animable"></rect><rect x="394.67" y="398.49" width="55.23" height="0.25" style="fill: rgb(235, 235, 235); transform-origin: 422.285px 398.615px;" id="elv9d95kv23m" class="animable"></rect><rect x="321.81" y="393.25" width="8.69" height="0.25" style="fill: rgb(235, 235, 235); transform-origin: 326.155px 393.375px;" id="elyuc9nc9eimj" class="animable"></rect><rect x="372.47" y="389.21" width="19.19" height="0.25" style="fill: rgb(235, 235, 235); transform-origin: 382.065px 389.335px;" id="el9bgou9tczar" class="animable"></rect><rect x="52.46" y="390.89" width="43.19" height="0.25" style="fill: rgb(235, 235, 235); transform-origin: 74.055px 391.015px;" id="el1t51rfqzge5" class="animable"></rect><rect x="215.33" y="397.35" width="45.72" height="0.25" style="fill: rgb(235, 235, 235); transform-origin: 238.19px 397.475px;" id="el9we15h2st5t" class="animable"></rect><rect x="140.46" y="393.12" width="93.68" height="0.25" style="fill: rgb(235, 235, 235); transform-origin: 187.3px 393.245px;" id="elwypndkk381a" class="animable"></rect><path d="M242.72,332.09A5.71,5.71,0,0,1,237,337.8H43.91a5.71,5.71,0,0,1-5.7-5.71V60.66A5.71,5.71,0,0,1,43.91,55H237a5.71,5.71,0,0,1,5.71,5.71m-.25,0A5.47,5.47,0,0,0,237,55.2H43.91a5.46,5.46,0,0,0-5.45,5.46V332.09a5.46,5.46,0,0,0,5.45,5.46H237a5.47,5.47,0,0,0,5.46-5.46" style="fill: rgb(235, 235, 235); transform-origin: 140.465px 196.4px;" id="elqz6808c49t" class="animable"></path><path d="M453.31,337.8H260.21a5.72,5.72,0,0,1-5.71-5.71V60.66A5.72,5.72,0,0,1,260.21,55h193.1A5.71,5.71,0,0,1,459,60.66V332.09A5.71,5.71,0,0,1,453.31,337.8ZM260.21,55.2a5.47,5.47,0,0,0-5.46,5.46V332.09a5.47,5.47,0,0,0,5.46,5.46h193.1a5.47,5.47,0,0,0,5.46-5.46V60.66a5.47,5.47,0,0,0-5.46-5.46Z" style="fill: rgb(235, 235, 235); transform-origin: 356.75px 196.4px;" id="eljf3k9mqv3tb" class="animable"></path><path d="M193.15,147.56a28.41,28.41,0,0,0-39.06-26.11,34.35,34.35,0,0,0-64.4,7.6,29.56,29.56,0,0,0,1.93,59h94.07a21,21,0,0,0,7.46-40.54Z" style="fill: rgb(224, 224, 224); transform-origin: 134.585px 145.107px;" id="el0boqq6941p6" class="animable"></path><path d="M434,284A28.41,28.41,0,0,0,395,257.89a34.35,34.35,0,0,0-64.4,7.6,29.56,29.56,0,0,0,1.93,59.06h94.07A21,21,0,0,0,434,284Z" style="fill: rgb(245, 245, 245); transform-origin: 375.129px 281.577px;" id="elfj6bcbrjvyc" class="animable"></path><path d="M344,191.86a14.75,14.75,0,0,0-20.26-13.55,17.81,17.81,0,0,0-33.4,3.95,15.33,15.33,0,0,0,1,30.63h48.79a10.87,10.87,0,0,0,3.87-21Z" style="fill: rgb(224, 224, 224); transform-origin: 313.448px 190.595px;" id="eloevj11jzr2k" class="animable"></path><path d="M412.77,103.83A19.49,19.49,0,0,0,386,85.93a23.54,23.54,0,0,0-44.13,5.21,20.26,20.26,0,0,0,1.32,40.47h64.46a14.36,14.36,0,0,0,5.12-27.78Z" style="fill: rgb(235, 235, 235); transform-origin: 372.524px 102.164px;" id="el3xo71z7xjb" class="animable"></path><path d="M206.09,275.22a19.47,19.47,0,0,0-26.77-17.89,23.53,23.53,0,0,0-44.12,5.2A20.26,20.26,0,0,0,136.51,303H201a14.36,14.36,0,0,0,5.12-27.78Z" style="fill: rgb(245, 245, 245); transform-origin: 165.864px 273.555px;" id="el2w2x9kf2svq" class="animable"></path><path d="M131,175.06a.51.51,0,0,1-.35-.15.42.42,0,0,1-.11-.16.43.43,0,0,1,0-.19.48.48,0,0,1,0-.2.42.42,0,0,1,.11-.16.53.53,0,0,1,.54-.11.64.64,0,0,1,.16.11.49.49,0,0,1,.15.36.43.43,0,0,1,0,.19.42.42,0,0,1-.11.16A.51.51,0,0,1,131,175.06Z" style="fill: rgb(224, 224, 224); transform-origin: 131.02px 174.56px;" id="el0zgiu61k3va" class="animable"></path><path d="M130.5,196.6a.5.5,0,0,1,.5-.5h0a.5.5,0,0,1,.5.5h0a.5.5,0,0,1-.5.5h0A.5.5,0,0,1,130.5,196.6Zm0-5.51a.5.5,0,0,1,.5-.5h0a.5.5,0,0,1,.5.5h0a.5.5,0,0,1-.5.5h0A.51.51,0,0,1,130.5,191.09Zm0-5.51a.5.5,0,0,1,.5-.5h0a.5.5,0,0,1,.5.5h0a.5.5,0,0,1-.5.5h0A.51.51,0,0,1,130.5,185.58Zm0-5.51a.5.5,0,0,1,.5-.5h0a.5.5,0,0,1,.5.5h0a.5.5,0,0,1-.5.5h0A.51.51,0,0,1,130.5,180.07Z" style="fill: rgb(224, 224, 224); transform-origin: 131px 188.335px;" id="elsmc21dzrro" class="animable"></path><path d="M131,202.61a.43.43,0,0,1-.19,0,.53.53,0,0,1-.27-.27.41.41,0,0,1,0-.19.43.43,0,0,1,0-.19.36.36,0,0,1,.11-.16.46.46,0,0,1,.16-.11.5.5,0,0,1,.38,0,.46.46,0,0,1,.16.11.36.36,0,0,1,.11.16.43.43,0,0,1,0,.19.47.47,0,0,1-.15.35.36.36,0,0,1-.16.11A.41.41,0,0,1,131,202.61Z" style="fill: rgb(224, 224, 224); transform-origin: 131px 202.137px;" id="elwxjf60caxi" class="animable"></path><path d="M222.17,202.11a.5.5,0,0,1,.49-.5h0a.51.51,0,0,1,.51.5h0a.5.5,0,0,1-.51.5h0A.49.49,0,0,1,222.17,202.11Zm-6.11,0a.5.5,0,0,1,.5-.5h0a.5.5,0,0,1,.49.5h0a.49.49,0,0,1-.49.5h0A.5.5,0,0,1,216.06,202.11Zm-6.11,0a.5.5,0,0,1,.5-.5h0a.51.51,0,0,1,.5.5h0a.5.5,0,0,1-.5.5h0A.5.5,0,0,1,210,202.11Zm-6.12,0a.51.51,0,0,1,.5-.5h0a.5.5,0,0,1,.5.5h0a.5.5,0,0,1-.5.5h0A.5.5,0,0,1,203.83,202.11Zm-6.11,0a.51.51,0,0,1,.5-.5h0a.5.5,0,0,1,.5.5h0a.5.5,0,0,1-.5.5h0A.5.5,0,0,1,197.72,202.11Zm-6.11,0a.5.5,0,0,1,.5-.5h0a.5.5,0,0,1,.5.5h0a.5.5,0,0,1-.5.5h0A.5.5,0,0,1,191.61,202.11Zm-6.11,0a.5.5,0,0,1,.5-.5h0a.5.5,0,0,1,.5.5h0a.5.5,0,0,1-.5.5h0A.5.5,0,0,1,185.5,202.11Zm-6.11,0a.5.5,0,0,1,.5-.5h0a.51.51,0,0,1,.5.5h0a.5.5,0,0,1-.5.5h0A.5.5,0,0,1,179.39,202.11Zm-6.11,0a.5.5,0,0,1,.5-.5h0a.51.51,0,0,1,.5.5h0a.5.5,0,0,1-.5.5h0A.5.5,0,0,1,173.28,202.11Zm-6.11,0a.5.5,0,0,1,.5-.5h0a.51.51,0,0,1,.5.5h0a.5.5,0,0,1-.5.5h0A.5.5,0,0,1,167.17,202.11Zm-6.12,0a.51.51,0,0,1,.5-.5h0a.51.51,0,0,1,.51.5h0a.5.5,0,0,1-.51.5h0A.5.5,0,0,1,161.05,202.11Zm-6.1,0a.5.5,0,0,1,.5-.5h0a.5.5,0,0,1,.49.5h0a.49.49,0,0,1-.49.5h0A.5.5,0,0,1,155,202.11Zm-6.12,0a.51.51,0,0,1,.5-.5h0a.5.5,0,0,1,.5.5h0a.5.5,0,0,1-.5.5h0A.5.5,0,0,1,148.83,202.11Zm-6.11,0a.51.51,0,0,1,.5-.5h0a.5.5,0,0,1,.5.5h0a.5.5,0,0,1-.5.5h0A.5.5,0,0,1,142.72,202.11Zm-6.11,0a.51.51,0,0,1,.5-.5h0a.5.5,0,0,1,.5.5h0a.5.5,0,0,1-.5.5h0A.5.5,0,0,1,136.61,202.11Z" style="fill: rgb(224, 224, 224); transform-origin: 179.89px 202.11px;" id="elbz7hllnxpob" class="animable"></path><path d="M228.78,202.61a.41.41,0,0,1-.19,0,.45.45,0,0,1-.17-.11.44.44,0,0,1-.1-.16.41.41,0,0,1,0-.19.55.55,0,0,1,.14-.35.45.45,0,0,1,.17-.11.5.5,0,0,1,.38,0,.36.36,0,0,1,.16.11.5.5,0,0,1,.15.35.51.51,0,0,1-.15.35.36.36,0,0,1-.16.11A.43.43,0,0,1,228.78,202.61Z" style="fill: rgb(224, 224, 224); transform-origin: 228.814px 202.139px;" id="eljfobz748n3c" class="animable"></path><path d="M228.28,196.16a.5.5,0,0,1,.5-.5h0a.5.5,0,0,1,.5.5h0a.51.51,0,0,1-.5.5h0A.5.5,0,0,1,228.28,196.16Zm0-6a.5.5,0,0,1,.5-.5h0a.5.5,0,0,1,.5.5h0a.5.5,0,0,1-.5.5h0A.5.5,0,0,1,228.28,190.2Zm0-6a.5.5,0,0,1,.5-.5h0a.51.51,0,0,1,.5.5h0a.5.5,0,0,1-.5.5h0A.5.5,0,0,1,228.28,184.24Zm0-6a.5.5,0,0,1,.5-.5h0a.5.5,0,0,1,.5.5h0a.5.5,0,0,1-.5.5h0A.5.5,0,0,1,228.28,178.29Zm0-6a.5.5,0,0,1,.5-.5h0a.51.51,0,0,1,.5.5h0a.5.5,0,0,1-.5.5h0A.5.5,0,0,1,228.28,172.33Zm0-6a.5.5,0,0,1,.5-.5h0a.5.5,0,0,1,.5.5h0a.51.51,0,0,1-.5.5h0A.5.5,0,0,1,228.28,166.38Zm0-6a.5.5,0,0,1,.5-.5h0a.51.51,0,0,1,.5.5h0a.5.5,0,0,1-.5.5h0A.5.5,0,0,1,228.28,160.42Zm0-5.95a.5.5,0,0,1,.5-.5h0a.5.5,0,0,1,.5.5h0a.51.51,0,0,1-.5.5h0A.5.5,0,0,1,228.28,154.47Zm0-6a.5.5,0,0,1,.5-.5h0a.5.5,0,0,1,.5.5h0a.5.5,0,0,1-.5.5h0A.5.5,0,0,1,228.28,148.51Z" style="fill: rgb(224, 224, 224); transform-origin: 228.78px 172.185px;" id="elvsjp2bvigsd" class="animable"></path><path d="M228.78,143.06a.58.58,0,0,1-.19,0l-.17-.11a.54.54,0,0,1-.1-.16.43.43,0,0,1,0-.19.48.48,0,0,1,0-.2.54.54,0,0,1,.1-.16l.17-.11a.5.5,0,0,1,.38,0,.64.64,0,0,1,.16.11.55.55,0,0,1,.15.36.51.51,0,0,1-.5.5Z" style="fill: rgb(224, 224, 224); transform-origin: 228.795px 142.596px;" id="elxoyhbjw5c3" class="animable"></path><path d="M366,142.56a.5.5,0,0,1,.5-.51h0a.51.51,0,0,1,.5.51h0a.51.51,0,0,1-.5.5h0A.5.5,0,0,1,366,142.56Zm-6,0a.5.5,0,0,1,.5-.51h0a.5.5,0,0,1,.5.51h0a.5.5,0,0,1-.5.5h0A.5.5,0,0,1,360,142.56Zm-6,0a.51.51,0,0,1,.5-.51h0a.5.5,0,0,1,.5.51h0a.5.5,0,0,1-.5.5h0A.51.51,0,0,1,354,142.56Zm-6,0a.5.5,0,0,1,.5-.51h0a.5.5,0,0,1,.49.51h0a.5.5,0,0,1-.49.5h0A.5.5,0,0,1,348,142.56Zm-6,0a.5.5,0,0,1,.5-.51h0a.51.51,0,0,1,.5.51h0a.51.51,0,0,1-.5.5h0A.5.5,0,0,1,342,142.56Zm-6,0a.5.5,0,0,1,.5-.51h0a.5.5,0,0,1,.5.51h0a.5.5,0,0,1-.5.5h0A.5.5,0,0,1,336.05,142.56Zm-6,0a.51.51,0,0,1,.5-.51h0a.5.5,0,0,1,.5.51h0a.5.5,0,0,1-.5.5h0A.51.51,0,0,1,330.06,142.56Zm-6,0a.5.5,0,0,1,.5-.51h0a.51.51,0,0,1,.5.51h0a.51.51,0,0,1-.5.5h0A.5.5,0,0,1,324.08,142.56Zm-6,0a.5.5,0,0,1,.5-.51h0a.51.51,0,0,1,.5.51h0a.51.51,0,0,1-.5.5h0A.5.5,0,0,1,318.09,142.56Zm-6,0a.51.51,0,0,1,.5-.51h0a.5.5,0,0,1,.5.51h0a.5.5,0,0,1-.5.5h0A.51.51,0,0,1,312.1,142.56Zm-6,0a.51.51,0,0,1,.51-.51h0a.5.5,0,0,1,.49.51h0a.5.5,0,0,1-.49.5h0A.51.51,0,0,1,306.11,142.56Zm-6,0a.5.5,0,0,1,.5-.51h0a.51.51,0,0,1,.5.51h0a.51.51,0,0,1-.5.5h0A.5.5,0,0,1,300.13,142.56Zm-6,0a.5.5,0,0,1,.5-.51h0a.5.5,0,0,1,.5.51h0a.5.5,0,0,1-.5.5h0A.5.5,0,0,1,294.14,142.56Zm-6,0a.51.51,0,0,1,.5-.51h0a.5.5,0,0,1,.5.51h0a.5.5,0,0,1-.5.5h0A.51.51,0,0,1,288.15,142.56Zm-6,0a.51.51,0,0,1,.5-.51h0a.51.51,0,0,1,.51.51h0a.51.51,0,0,1-.51.5h0A.51.51,0,0,1,282.16,142.56Zm-6,0a.5.5,0,0,1,.5-.51h0a.51.51,0,0,1,.5.51h0a.51.51,0,0,1-.5.5h0A.5.5,0,0,1,276.18,142.56Zm-6,0a.5.5,0,0,1,.5-.51h0a.51.51,0,0,1,.5.51h0a.51.51,0,0,1-.5.5h0A.5.5,0,0,1,270.19,142.56Zm-6,0a.51.51,0,0,1,.5-.51h0a.5.5,0,0,1,.5.51h0a.5.5,0,0,1-.5.5h0A.51.51,0,0,1,264.2,142.56Zm-6,0a.5.5,0,0,1,.5-.51h0a.5.5,0,0,1,.49.51h0a.5.5,0,0,1-.49.5h0A.5.5,0,0,1,258.22,142.56Zm-6,0a.5.5,0,0,1,.5-.51h0a.51.51,0,0,1,.5.51h0a.51.51,0,0,1-.5.5h0A.5.5,0,0,1,252.23,142.56Zm-6,0a.5.5,0,0,1,.5-.51h0a.5.5,0,0,1,.5.51h0a.5.5,0,0,1-.5.5h0A.5.5,0,0,1,246.24,142.56Zm-6,0a.51.51,0,0,1,.5-.51h0a.5.5,0,0,1,.5.51h0a.5.5,0,0,1-.5.5h0A.51.51,0,0,1,240.25,142.56Zm-6,0a.5.5,0,0,1,.5-.51h0a.51.51,0,0,1,.5.51h0a.51.51,0,0,1-.5.5h0A.5.5,0,0,1,234.27,142.56Z" style="fill: rgb(224, 224, 224); transform-origin: 300.5px 142.555px;" id="el9xftqktxpbn" class="animable"></path><path d="M372.48,143.06a.5.5,0,0,1-.5-.5.54.54,0,0,1,.14-.36.91.91,0,0,1,.16-.11.52.52,0,0,1,.55.11.71.71,0,0,1,.11.17.58.58,0,0,1,0,.19.5.5,0,0,1-.14.35A.51.51,0,0,1,372.48,143.06Z" style="fill: rgb(224, 224, 224); transform-origin: 372.464px 142.557px;" id="elk043fw1opo" class="animable"></path><path d="M372,136.78a.5.5,0,0,1,.5-.49h0a.5.5,0,0,1,.51.49h0a.5.5,0,0,1-.51.5h0A.5.5,0,0,1,372,136.78Zm0-5.77a.51.51,0,0,1,.5-.5h0a.51.51,0,0,1,.51.5h0a.51.51,0,0,1-.51.51h0A.51.51,0,0,1,372,131Zm0-5.77a.51.51,0,0,1,.5-.5h0a.51.51,0,0,1,.51.5h0a.5.5,0,0,1-.51.5h0A.5.5,0,0,1,372,125.24Zm0-5.77a.51.51,0,0,1,.5-.5h0a.51.51,0,0,1,.51.5h0a.5.5,0,0,1-.51.5h0A.5.5,0,0,1,372,119.47Zm0-5.77a.51.51,0,0,1,.5-.5h0a.51.51,0,0,1,.51.5h0a.5.5,0,0,1-.51.5h0A.5.5,0,0,1,372,113.7Zm0-5.77a.51.51,0,0,1,.5-.5h0a.51.51,0,0,1,.51.5h0a.5.5,0,0,1-.51.5h0A.5.5,0,0,1,372,107.93Z" style="fill: rgb(224, 224, 224); transform-origin: 372.505px 122.355px;" id="elst1f2n764nq" class="animable"></path><path d="M372.48,102.66a.49.49,0,0,1-.36-.15.5.5,0,0,1-.14-.35.58.58,0,0,1,0-.19.64.64,0,0,1,.11-.16.51.51,0,0,1,.71,0,.5.5,0,0,1,.14.35.58.58,0,0,1,0,.19.64.64,0,0,1-.11.16.42.42,0,0,1-.16.11A.43.43,0,0,1,372.48,102.66Z" style="fill: rgb(224, 224, 224); transform-origin: 372.46px 102.163px;" id="eldulpuj2aam4" class="animable"></path><path d="M165.8,290.83a.51.51,0,0,1-.36-.14.5.5,0,0,1-.11-.17.58.58,0,0,1,0-.19.51.51,0,0,1,.15-.35.53.53,0,0,1,.55-.11.57.57,0,0,1,.16.11.5.5,0,0,1,.14.35.58.58,0,0,1,0,.19.71.71,0,0,1-.11.17.54.54,0,0,1-.16.1A.43.43,0,0,1,165.8,290.83Z" style="fill: rgb(224, 224, 224); transform-origin: 165.83px 290.336px;" id="eljt7gxxf0788" class="animable"></path><path d="M165.3,314.87a.5.5,0,0,1,.5-.5h0a.49.49,0,0,1,.49.5h0a.5.5,0,0,1-.49.5h0A.5.5,0,0,1,165.3,314.87Zm0-6.14a.5.5,0,0,1,.5-.5h0a.5.5,0,0,1,.49.5h0a.49.49,0,0,1-.49.5h0A.5.5,0,0,1,165.3,308.73Zm0-6.13a.5.5,0,0,1,.5-.5h0a.5.5,0,0,1,.49.5h0a.5.5,0,0,1-.49.5h0A.5.5,0,0,1,165.3,302.6Zm0-6.13a.5.5,0,0,1,.5-.5h0a.49.49,0,0,1,.49.5h0a.5.5,0,0,1-.49.5h0A.5.5,0,0,1,165.3,296.47Z" style="fill: rgb(224, 224, 224); transform-origin: 165.795px 305.67px;" id="elsjlq3svvo5" class="animable"></path><path d="M165.8,321.5a.48.48,0,0,1-.36-.15.46.46,0,0,1-.11-.16.58.58,0,0,1,0-.19.65.65,0,0,1,0-.19.46.46,0,0,1,.11-.16.51.51,0,0,1,.55-.11.42.42,0,0,1,.16.11.64.64,0,0,1,.11.16.63.63,0,0,1,0,.19.58.58,0,0,1,0,.19.64.64,0,0,1-.11.16.42.42,0,0,1-.16.11A.43.43,0,0,1,165.8,321.5Z" style="fill: rgb(224, 224, 224); transform-origin: 165.795px 321.001px;" id="elmecg882knc" class="animable"></path><path d="M222.55,321a.5.5,0,0,1,.5-.5h0a.5.5,0,0,1,.5.5h0a.5.5,0,0,1-.5.5h0A.5.5,0,0,1,222.55,321Zm-5.72,0a.5.5,0,0,1,.5-.5h0a.5.5,0,0,1,.5.5h0a.5.5,0,0,1-.5.5h0A.5.5,0,0,1,216.83,321Zm-5.73,0a.5.5,0,0,1,.5-.5h0a.5.5,0,0,1,.5.5h0a.5.5,0,0,1-.5.5h0A.5.5,0,0,1,211.1,321Zm-5.72,0a.5.5,0,0,1,.5-.5h0a.5.5,0,0,1,.5.5h0a.5.5,0,0,1-.5.5h0A.5.5,0,0,1,205.38,321Zm-5.73,0a.5.5,0,0,1,.5-.5h0a.5.5,0,0,1,.5.5h0a.5.5,0,0,1-.5.5h0A.5.5,0,0,1,199.65,321Zm-5.73,0a.5.5,0,0,1,.51-.5h0a.49.49,0,0,1,.49.5h0a.49.49,0,0,1-.49.5h0A.5.5,0,0,1,193.92,321Zm-5.72,0a.5.5,0,0,1,.5-.5h0a.5.5,0,0,1,.5.5h0a.5.5,0,0,1-.5.5h0A.5.5,0,0,1,188.2,321Zm-5.73,0a.5.5,0,0,1,.5-.5h0a.5.5,0,0,1,.5.5h0a.5.5,0,0,1-.5.5h0A.5.5,0,0,1,182.47,321Zm-5.72,0a.5.5,0,0,1,.5-.5h0a.5.5,0,0,1,.5.5h0a.5.5,0,0,1-.5.5h0A.5.5,0,0,1,176.75,321ZM171,321a.5.5,0,0,1,.5-.5h0a.5.5,0,0,1,.5.5h0a.5.5,0,0,1-.5.5h0A.5.5,0,0,1,171,321Z" style="fill: rgb(224, 224, 224); transform-origin: 197.275px 321px;" id="el0xlqzgo9hhjl" class="animable"></path><path d="M228.78,321.5a.41.41,0,0,1-.19,0,.45.45,0,0,1-.17-.11.44.44,0,0,1-.1-.16.41.41,0,0,1,0-.19.5.5,0,0,1,.14-.35.45.45,0,0,1,.17-.11.5.5,0,0,1,.38,0,.36.36,0,0,1,.16.11.51.51,0,0,1,.15.35.43.43,0,0,1,0,.19.46.46,0,0,1-.11.16.36.36,0,0,1-.16.11A.43.43,0,0,1,228.78,321.5Z" style="fill: rgb(224, 224, 224); transform-origin: 228.82px 321.032px;" id="elpfvm77rb94d" class="animable"></path><path d="M228.28,315.18a.5.5,0,0,1,.5-.5h0a.5.5,0,0,1,.5.5h0a.51.51,0,0,1-.5.5h0A.5.5,0,0,1,228.28,315.18Zm0-5.82a.5.5,0,0,1,.5-.51h0a.51.51,0,0,1,.5.51h0a.51.51,0,0,1-.5.5h0A.5.5,0,0,1,228.28,309.36Zm0-5.83a.5.5,0,0,1,.5-.5h0a.51.51,0,0,1,.5.5h0a.5.5,0,0,1-.5.5h0A.5.5,0,0,1,228.28,303.53Zm0-5.82a.5.5,0,0,1,.5-.5h0a.51.51,0,0,1,.5.5h0a.5.5,0,0,1-.5.5h0A.5.5,0,0,1,228.28,297.71Zm0-5.82a.5.5,0,0,1,.5-.5h0a.5.5,0,0,1,.5.5h0a.51.51,0,0,1-.5.5h0A.5.5,0,0,1,228.28,291.89Zm0-5.82a.5.5,0,0,1,.5-.5h0a.5.5,0,0,1,.5.5h0a.51.51,0,0,1-.5.5h0A.5.5,0,0,1,228.28,286.07Zm0-5.82a.5.5,0,0,1,.5-.5h0a.5.5,0,0,1,.5.5h0a.51.51,0,0,1-.5.5h0A.5.5,0,0,1,228.28,280.25Zm0-5.83a.5.5,0,0,1,.5-.5h0a.51.51,0,0,1,.5.5h0a.5.5,0,0,1-.5.5h0A.5.5,0,0,1,228.28,274.42Zm0-5.82a.5.5,0,0,1,.5-.5h0a.5.5,0,0,1,.5.5h0a.5.5,0,0,1-.5.5h0A.5.5,0,0,1,228.28,268.6Zm0-5.82a.5.5,0,0,1,.5-.5h0a.5.5,0,0,1,.5.5h0a.51.51,0,0,1-.5.5h0A.5.5,0,0,1,228.28,262.78Zm0-5.82a.5.5,0,0,1,.5-.5h0a.5.5,0,0,1,.5.5h0a.51.51,0,0,1-.5.5h0A.5.5,0,0,1,228.28,257Zm0-5.83a.5.5,0,0,1,.5-.5h0a.51.51,0,0,1,.5.5h0a.5.5,0,0,1-.5.5h0A.5.5,0,0,1,228.28,251.13Zm0-5.82a.5.5,0,0,1,.5-.5h0a.5.5,0,0,1,.5.5h0a.5.5,0,0,1-.5.5h0A.5.5,0,0,1,228.28,245.31Zm0-5.82a.5.5,0,0,1,.5-.5h0a.5.5,0,0,1,.5.5h0a.5.5,0,0,1-.5.5h0A.5.5,0,0,1,228.28,239.49Z" style="fill: rgb(224, 224, 224); transform-origin: 228.78px 277.335px;" id="elbss4agy0g3n" class="animable"></path><path d="M228.78,234.17a.58.58,0,0,1-.19,0,.62.62,0,0,1-.17-.11.54.54,0,0,1-.1-.16.43.43,0,0,1,0-.19.52.52,0,0,1,.14-.36.59.59,0,0,1,.17-.1.5.5,0,0,1,.38,0,.44.44,0,0,1,.16.1.55.55,0,0,1,.15.36.43.43,0,0,1,0,.19.57.57,0,0,1-.11.16.5.5,0,0,1-.35.15Z" style="fill: rgb(224, 224, 224); transform-origin: 228.82px 233.711px;" id="eld3mk39r2kiq" class="animable"></path><path d="M306.91,233.67a.5.5,0,0,1,.5-.5h0a.5.5,0,0,1,.5.5h0a.5.5,0,0,1-.5.5h0A.51.51,0,0,1,306.91,233.67Zm-6.05,0a.5.5,0,0,1,.5-.5h0a.5.5,0,0,1,.51.5h0a.51.51,0,0,1-.51.5h0A.51.51,0,0,1,300.86,233.67Zm-6.05,0a.5.5,0,0,1,.5-.5h0a.5.5,0,0,1,.5.5h0a.5.5,0,0,1-.5.5h0A.51.51,0,0,1,294.81,233.67Zm-6,0a.49.49,0,0,1,.49-.5h0a.5.5,0,0,1,.5.5h0a.5.5,0,0,1-.5.5h0A.5.5,0,0,1,288.77,233.67Zm-6,0a.5.5,0,0,1,.5-.5h0a.5.5,0,0,1,.5.5h0a.51.51,0,0,1-.5.5h0A.5.5,0,0,1,282.72,233.67Zm-6.05,0a.5.5,0,0,1,.5-.5h0a.5.5,0,0,1,.5.5h0a.51.51,0,0,1-.5.5h0A.5.5,0,0,1,276.67,233.67Zm-6.05,0a.5.5,0,0,1,.5-.5h0a.5.5,0,0,1,.5.5h0a.51.51,0,0,1-.5.5h0A.5.5,0,0,1,270.62,233.67Zm-6.05,0a.5.5,0,0,1,.5-.5h0a.5.5,0,0,1,.5.5h0a.5.5,0,0,1-.5.5h0A.51.51,0,0,1,264.57,233.67Zm-6.05,0a.5.5,0,0,1,.5-.5h0a.5.5,0,0,1,.5.5h0a.5.5,0,0,1-.5.5h0A.5.5,0,0,1,258.52,233.67Zm-6,0a.5.5,0,0,1,.5-.5h0a.5.5,0,0,1,.5.5h0a.5.5,0,0,1-.5.5h0A.51.51,0,0,1,252.47,233.67Zm-6.05,0a.5.5,0,0,1,.5-.5h0a.5.5,0,0,1,.5.5h0a.5.5,0,0,1-.5.5h0A.51.51,0,0,1,246.42,233.67Zm-6,0a.5.5,0,0,1,.5-.5h0a.5.5,0,0,1,.5.5h0a.51.51,0,0,1-.5.5h0A.5.5,0,0,1,240.38,233.67Zm-6,0a.5.5,0,0,1,.5-.5h0a.5.5,0,0,1,.5.5h0a.51.51,0,0,1-.5.5h0A.5.5,0,0,1,234.33,233.67Z" style="fill: rgb(224, 224, 224); transform-origin: 271.118px 233.699px;" id="elzd54h6d89ok" class="animable"></path><path d="M313.46,234.17a.51.51,0,0,1-.35-.15.57.57,0,0,1-.11-.16.65.65,0,0,1,0-.19.58.58,0,0,1,0-.19.5.5,0,0,1,.11-.17.44.44,0,0,1,.16-.1.42.42,0,0,1,.38,0,.59.59,0,0,1,.17.1.48.48,0,0,1,.1.17.41.41,0,0,1,0,.19.5.5,0,0,1-.14.35A.55.55,0,0,1,313.46,234.17Z" style="fill: rgb(224, 224, 224); transform-origin: 313.462px 233.667px;" id="elfx63dwczdzv" class="animable"></path><path d="M313,227.36a.5.5,0,0,1,.5-.5h0a.5.5,0,0,1,.5.5h0a.5.5,0,0,1-.5.5h0A.51.51,0,0,1,313,227.36Zm0-6.31a.5.5,0,0,1,.5-.5h0a.5.5,0,0,1,.5.5h0a.49.49,0,0,1-.5.49h0A.5.5,0,0,1,313,221.05Zm0-6.32a.51.51,0,0,1,.5-.5h0a.5.5,0,0,1,.5.5h0a.5.5,0,0,1-.5.5h0A.5.5,0,0,1,313,214.73Zm0-6.31a.51.51,0,0,1,.5-.5h0a.5.5,0,0,1,.5.5h0a.5.5,0,0,1-.5.5h0A.5.5,0,0,1,313,208.42Z" style="fill: rgb(224, 224, 224); transform-origin: 313.5px 217.89px;" id="elwmz36561mh9" class="animable"></path><path d="M313.46,202.61a.5.5,0,0,1-.35-.14.62.62,0,0,1-.11-.17.58.58,0,0,1,0-.19.65.65,0,0,1,0-.19.53.53,0,0,1,.27-.27.52.52,0,0,1,.55.11.55.55,0,0,1,.14.35.48.48,0,0,1-.5.5Z" style="fill: rgb(224, 224, 224); transform-origin: 313.476px 202.112px;" id="elgcchl6u4rki" class="animable"></path><path d="M372.48,313.17a.51.51,0,0,1-.36-.15.5.5,0,0,1-.14-.35.54.54,0,0,1,.14-.36.52.52,0,0,1,.55-.1.54.54,0,0,1,.16.1.71.71,0,0,1,.11.17.58.58,0,0,1,0,.19.5.5,0,0,1-.14.35A.51.51,0,0,1,372.48,313.17Z" style="fill: rgb(224, 224, 224); transform-origin: 372.464px 312.671px;" id="elqpnpid2pu9a" class="animable"></path><path d="M372,347.24a.5.5,0,0,1,.5-.5h0a.5.5,0,0,1,.51.5h0a.5.5,0,0,1-.51.5h0A.5.5,0,0,1,372,347.24Zm0-5.76a.5.5,0,0,1,.5-.5h0a.5.5,0,0,1,.51.5h0a.51.51,0,0,1-.51.5h0A.51.51,0,0,1,372,341.48Zm0-5.77a.51.51,0,0,1,.5-.5h0a.51.51,0,0,1,.51.5h0a.51.51,0,0,1-.51.51h0A.51.51,0,0,1,372,335.71Zm0-5.76a.51.51,0,0,1,.5-.5h0a.51.51,0,0,1,.51.5h0a.5.5,0,0,1-.51.5h0A.5.5,0,0,1,372,330Zm0-5.76a.5.5,0,0,1,.5-.5h0a.5.5,0,0,1,.51.5h0a.5.5,0,0,1-.51.5h0A.5.5,0,0,1,372,324.19Zm0-5.76a.5.5,0,0,1,.5-.5h0a.5.5,0,0,1,.51.5h0a.51.51,0,0,1-.51.5h0A.51.51,0,0,1,372,318.43Z" style="fill: rgb(224, 224, 224); transform-origin: 372.505px 332.835px;" id="elv763l1cbzs" class="animable"></path><path d="M372.48,353.5a.49.49,0,0,1-.36-.15A.5.5,0,0,1,372,353a.58.58,0,0,1,0-.19.64.64,0,0,1,.11-.16.51.51,0,0,1,.71,0,.5.5,0,0,1,.14.35.63.63,0,0,1,0,.19.64.64,0,0,1-.11.16.42.42,0,0,1-.16.11A.43.43,0,0,1,372.48,353.5Z" style="fill: rgb(224, 224, 224); transform-origin: 372.48px 353.004px;" id="elhdfk8ew6v4b" class="animable"></path><path d="M366,353a.5.5,0,0,1,.5-.5h0a.5.5,0,0,1,.5.5h0a.5.5,0,0,1-.5.5h0A.5.5,0,0,1,366,353Zm-6,0a.5.5,0,0,1,.5-.5h0a.5.5,0,0,1,.5.5h0a.5.5,0,0,1-.5.5h0A.5.5,0,0,1,360,353Zm-6,0a.5.5,0,0,1,.5-.5h0a.5.5,0,0,1,.5.5h0a.5.5,0,0,1-.5.5h0A.5.5,0,0,1,354,353Zm-6,0a.5.5,0,0,1,.5-.5h0a.5.5,0,0,1,.5.5h0a.5.5,0,0,1-.5.5h0A.5.5,0,0,1,348,353Zm-6,0a.5.5,0,0,1,.5-.5h0a.5.5,0,0,1,.5.5h0a.5.5,0,0,1-.5.5h0A.5.5,0,0,1,342,353Zm-6,0a.5.5,0,0,1,.5-.5h0a.5.5,0,0,1,.5.5h0a.5.5,0,0,1-.5.5h0A.5.5,0,0,1,336.05,353Zm-6,0a.5.5,0,0,1,.5-.5h0a.5.5,0,0,1,.5.5h0a.5.5,0,0,1-.5.5h0A.5.5,0,0,1,330.06,353Zm-6,0a.5.5,0,0,1,.51-.5h0a.5.5,0,0,1,.5.5h0a.5.5,0,0,1-.5.5h0A.5.5,0,0,1,324.07,353Zm-6,0a.5.5,0,0,1,.5-.5h0a.5.5,0,0,1,.5.5h0a.5.5,0,0,1-.5.5h0A.5.5,0,0,1,318.09,353Zm-6,0a.5.5,0,0,1,.5-.5h0a.5.5,0,0,1,.5.5h0a.5.5,0,0,1-.5.5h0A.5.5,0,0,1,312.1,353Zm-6,0a.5.5,0,0,1,.5-.5h0a.5.5,0,0,1,.5.5h0a.5.5,0,0,1-.5.5h0A.5.5,0,0,1,306.11,353Zm-6,0a.5.5,0,0,1,.5-.5h0a.5.5,0,0,1,.51.5h0a.5.5,0,0,1-.51.5h0A.5.5,0,0,1,300.12,353Zm-6,0a.5.5,0,0,1,.5-.5h0a.5.5,0,0,1,.5.5h0a.5.5,0,0,1-.5.5h0A.5.5,0,0,1,294.14,353Zm-6,0a.5.5,0,0,1,.5-.5h0a.5.5,0,0,1,.5.5h0a.5.5,0,0,1-.5.5h0A.5.5,0,0,1,288.15,353Zm-6,0a.5.5,0,0,1,.5-.5h0a.5.5,0,0,1,.5.5h0a.5.5,0,0,1-.5.5h0A.5.5,0,0,1,282.16,353Zm-6,0a.5.5,0,0,1,.5-.5h0a.5.5,0,0,1,.5.5h0a.5.5,0,0,1-.5.5h0A.5.5,0,0,1,276.18,353Zm-6,0a.5.5,0,0,1,.5-.5h0a.5.5,0,0,1,.5.5h0a.5.5,0,0,1-.5.5h0A.5.5,0,0,1,270.19,353Zm-6,0a.5.5,0,0,1,.5-.5h0a.5.5,0,0,1,.5.5h0a.5.5,0,0,1-.5.5h0A.5.5,0,0,1,264.2,353Zm-6,0a.49.49,0,0,1,.49-.5h0a.5.5,0,0,1,.5.5h0a.5.5,0,0,1-.5.5h0A.49.49,0,0,1,258.22,353Zm-6,0a.5.5,0,0,1,.5-.5h0a.5.5,0,0,1,.5.5h0a.5.5,0,0,1-.5.5h0A.5.5,0,0,1,252.23,353Zm-6,0a.5.5,0,0,1,.5-.5h0a.5.5,0,0,1,.5.5h0a.5.5,0,0,1-.5.5h0A.5.5,0,0,1,246.24,353Zm-6,0a.5.5,0,0,1,.5-.5h0a.5.5,0,0,1,.5.5h0a.5.5,0,0,1-.5.5h0A.5.5,0,0,1,240.25,353Zm-6,0a.5.5,0,0,1,.5-.5h0a.5.5,0,0,1,.51.5h0a.5.5,0,0,1-.51.5h0A.5.5,0,0,1,234.26,353Z" style="fill: rgb(224, 224, 224); transform-origin: 300.5px 353px;" id="el6pqr2j20c1r" class="animable"></path><path d="M228.78,353.5a.41.41,0,0,1-.19,0,.45.45,0,0,1-.17-.11.52.52,0,0,1,0-.7.45.45,0,0,1,.17-.11.5.5,0,0,1,.38,0,.36.36,0,0,1,.16.11.49.49,0,0,1,0,.7.36.36,0,0,1-.16.11A.43.43,0,0,1,228.78,353.5Z" style="fill: rgb(224, 224, 224); transform-origin: 228.781px 353.027px;" id="elq21b50v8wzm" class="animable"></path><path d="M228.28,346.6a.5.5,0,0,1,.5-.5h0a.5.5,0,0,1,.5.5h0a.5.5,0,0,1-.5.5h0A.5.5,0,0,1,228.28,346.6Zm0-6.4a.5.5,0,0,1,.5-.5h0a.5.5,0,0,1,.5.5h0a.5.5,0,0,1-.5.5h0A.5.5,0,0,1,228.28,340.2Zm0-6.4a.5.5,0,0,1,.5-.5h0a.5.5,0,0,1,.5.5h0a.5.5,0,0,1-.5.5h0A.5.5,0,0,1,228.28,333.8Zm0-6.4a.5.5,0,0,1,.5-.5h0a.5.5,0,0,1,.5.5h0a.5.5,0,0,1-.5.5h0A.5.5,0,0,1,228.28,327.4Z" style="fill: rgb(224, 224, 224); transform-origin: 228.78px 337px;" id="el1hrgb3gu1hb" class="animable"></path><path d="M228.78,321.5a.41.41,0,0,1-.19,0,.45.45,0,0,1-.17-.11.44.44,0,0,1-.1-.16.41.41,0,0,1,0-.19.5.5,0,0,1,.14-.35.45.45,0,0,1,.17-.11.5.5,0,0,1,.38,0,.36.36,0,0,1,.16.11.51.51,0,0,1,.15.35.43.43,0,0,1,0,.19.46.46,0,0,1-.11.16.36.36,0,0,1-.16.11A.43.43,0,0,1,228.78,321.5Z" style="fill: rgb(224, 224, 224); transform-origin: 228.82px 321.032px;" id="elu7w3hbg9y8" class="animable"></path><path d="M228.78,202.61a.41.41,0,0,1-.19,0,.45.45,0,0,1-.17-.11.44.44,0,0,1-.1-.16.41.41,0,0,1,0-.19.55.55,0,0,1,.14-.35.45.45,0,0,1,.17-.11.5.5,0,0,1,.38,0,.36.36,0,0,1,.16.11.5.5,0,0,1,.15.35.51.51,0,0,1-.15.35.36.36,0,0,1-.16.11A.43.43,0,0,1,228.78,202.61Z" style="fill: rgb(224, 224, 224); transform-origin: 228.814px 202.139px;" id="elkyalmov9sud" class="animable"></path><path d="M228.28,227.36a.5.5,0,0,1,.5-.51h0a.51.51,0,0,1,.5.51h0a.51.51,0,0,1-.5.5h0A.5.5,0,0,1,228.28,227.36Zm0-6.31a.5.5,0,0,1,.5-.5h0a.5.5,0,0,1,.5.5h0a.51.51,0,0,1-.5.5h0A.5.5,0,0,1,228.28,221.05Zm0-6.32a.5.5,0,0,1,.5-.5h0a.51.51,0,0,1,.5.5h0a.5.5,0,0,1-.5.5h0A.5.5,0,0,1,228.28,214.73Zm0-6.31a.5.5,0,0,1,.5-.5h0a.51.51,0,0,1,.5.5h0a.5.5,0,0,1-.5.5h0A.5.5,0,0,1,228.28,208.42Z" style="fill: rgb(224, 224, 224); transform-origin: 228.78px 217.89px;" id="elq06efm4xal9" class="animable"></path><path d="M228.78,234.17a.58.58,0,0,1-.19,0,.62.62,0,0,1-.17-.11.54.54,0,0,1-.1-.16.43.43,0,0,1,0-.19.52.52,0,0,1,.14-.36.59.59,0,0,1,.17-.1.5.5,0,0,1,.38,0,.44.44,0,0,1,.16.1.55.55,0,0,1,.15.36.43.43,0,0,1,0,.19.57.57,0,0,1-.11.16.5.5,0,0,1-.35.15Z" style="fill: rgb(224, 224, 224); transform-origin: 228.82px 233.711px;" id="elnj6bul9g9o" class="animable"></path></g><g id="freepik--Shadow--inject-66" class="animable" style="transform-origin: 250px 416.24px;"><ellipse id="freepik--path--inject-66" cx="250" cy="416.24" rx="193.89" ry="11.32" style="fill: rgb(245, 245, 245); transform-origin: 250px 416.24px;" class="animable"></ellipse></g><g id="freepik--Monitors--inject-66" class="animable animator-hidden" style="transform-origin: 250.015px 341.857px;"><path d="M123.3,353.48l2-34.24a3.89,3.89,0,0,1,3.83-3.62h55.57a3.38,3.38,0,0,1,3.41,3.62l-2,34.24a3.89,3.89,0,0,1-3.83,3.63H126.72A3.4,3.4,0,0,1,123.3,353.48Z" style="fill: #3F6DB4; transform-origin: 155.705px 336.365px;" id="elfbip9f99dbu" class="animable"></path><path d="M120.49,353.48l2-34.24a3.89,3.89,0,0,1,3.84-3.62h57.79a3.39,3.39,0,0,1,3.42,3.62l-2,34.24a3.89,3.89,0,0,1-3.83,3.63H123.91A3.4,3.4,0,0,1,120.49,353.48Z" style="fill: rgb(255, 255, 255); transform-origin: 154.015px 336.365px;" id="elw8cwrk44ged" class="animable"></path><g id="el2e7zjvu3rt7"><path d="M120.49,353.48l2-34.24a3.89,3.89,0,0,1,3.84-3.62h57.79a3.39,3.39,0,0,1,3.42,3.62l-2,34.24a3.89,3.89,0,0,1-3.83,3.63H123.91A3.4,3.4,0,0,1,120.49,353.48Z" style="fill: #3F6DB4; opacity: 0.3; transform-origin: 154.015px 336.365px;" class="animable" id="elamtezc5yyp"></path></g><g id="elxtl9zoh8djb"><rect x="154.44" y="350.17" width="7.7" height="28.15" rx="3.62" style="fill: #3F6DB4; transform-origin: 158.29px 364.245px; transform: rotate(90deg);" class="animable" id="elgvjwyoso8zi"></rect></g><g id="elcli58rouqbg"><g style="opacity: 0.6; transform-origin: 158.29px 364.245px;" class="animable" id="elctd7h3gwb2"><g id="eltfqgc6mkono"><rect x="154.44" y="350.17" width="7.7" height="28.15" rx="3.62" style="fill: rgb(255, 255, 255); transform-origin: 158.29px 364.245px; transform: rotate(90deg);" class="animable" id="elu525urxiqr"></rect></g></g></g><g id="el52s744fpj0g"><rect x="146.97" y="349.05" width="7.7" height="30.38" rx="3.62" style="fill: rgb(255, 255, 255); transform-origin: 150.82px 364.24px; transform: rotate(90deg);" class="animable" id="elfbw034wfprb"></rect></g><g id="el5pw6xnioqfu"><rect x="146.97" y="349.05" width="7.7" height="30.38" rx="3.62" style="fill: #3F6DB4; opacity: 0.3; transform-origin: 150.82px 364.24px; transform: rotate(90deg);" class="animable" id="elvl7dr8rp20d"></rect></g><g id="elemkls8n89he"><path d="M182.52,355.35H123.3a1.5,1.5,0,0,1-1.51-1.6l2-34.78a1.72,1.72,0,0,1,1.69-1.6h59.22a1.5,1.5,0,0,1,1.51,1.6l-2,34.78A1.72,1.72,0,0,1,182.52,355.35Z" style="fill: rgb(255, 255, 255); opacity: 0.9; transform-origin: 154px 336.36px;" class="animable" id="el80b66899kw4"></path></g><g id="elnkrl8vcgc7"><polygon points="140.37 355.35 128.59 355.35 139.36 317.37 151.14 317.37 140.37 355.35" style="fill: #3F6DB4; opacity: 0.1; transform-origin: 139.865px 336.36px;" class="animable" id="el9qu9r8sv5v6"></polygon></g><g id="elrga0sykfwx"><polygon points="150.01 355.35 141.78 355.35 152.55 317.37 160.78 317.37 150.01 355.35" style="fill: #3F6DB4; opacity: 0.1; transform-origin: 151.28px 336.36px;" class="animable" id="eleeo8kx7qgit"></polygon></g><g id="el2om9q1qjnve"><polygon points="167.95 355.35 159.72 355.35 170.49 317.37 178.72 317.37 167.95 355.35" style="fill: #3F6DB4; opacity: 0.1; transform-origin: 169.22px 336.36px;" class="animable" id="elr2gze276yd8"></polygon></g><path d="M219,353.48l2-34.24a3.88,3.88,0,0,1,3.83-3.62h55.56a3.38,3.38,0,0,1,3.42,3.62l-2,34.24a3.9,3.9,0,0,1-3.83,3.63H222.43A3.38,3.38,0,0,1,219,353.48Z" style="fill: #3F6DB4; transform-origin: 251.405px 336.365px;" id="els67r4jysuc" class="animable"></path><path d="M216.21,353.48l2-34.24a3.89,3.89,0,0,1,3.83-3.62h57.8a3.38,3.38,0,0,1,3.41,3.62l-2,34.24a3.89,3.89,0,0,1-3.83,3.63H219.63A3.39,3.39,0,0,1,216.21,353.48Z" style="fill: rgb(255, 255, 255); transform-origin: 249.73px 336.365px;" id="elugf4gyxk7j" class="animable"></path><g id="el6ydieniee04"><path d="M216.21,353.48l2-34.24a3.89,3.89,0,0,1,3.83-3.62h57.8a3.38,3.38,0,0,1,3.41,3.62l-2,34.24a3.89,3.89,0,0,1-3.83,3.63H219.63A3.39,3.39,0,0,1,216.21,353.48Z" style="fill: #3F6DB4; opacity: 0.3; transform-origin: 249.73px 336.365px;" class="animable" id="el9af8m4061oe"></path></g><g id="el55ngxlbm1dk"><rect x="250.15" y="350.17" width="7.7" height="28.15" rx="3.62" style="fill: #3F6DB4; transform-origin: 254px 364.245px; transform: rotate(90deg);" class="animable" id="ell7i0g2cir2"></rect></g><g id="elwh1u0wct7s"><g style="opacity: 0.6; transform-origin: 254px 364.245px;" class="animable" id="eln0sz6ijt5t"><g id="el3shqhfwtb03"><rect x="250.15" y="350.17" width="7.7" height="28.15" rx="3.62" style="fill: rgb(255, 255, 255); transform-origin: 254px 364.245px; transform: rotate(90deg);" class="animable" id="elh3i7yny6jhh"></rect></g></g></g><g id="el3w8wdu3a6x2"><rect x="242.68" y="349.05" width="7.7" height="30.38" rx="3.62" style="fill: rgb(255, 255, 255); transform-origin: 246.53px 364.24px; transform: rotate(90deg);" class="animable" id="el01egmaxedou9"></rect></g><g id="elx3bikhdm5w"><rect x="242.68" y="349.05" width="7.7" height="30.38" rx="3.62" style="fill: #3F6DB4; opacity: 0.3; transform-origin: 246.53px 364.24px; transform: rotate(90deg);" class="animable" id="el0j51o8d9fp39"></rect></g><g id="elg08llszg0eh"><path d="M278.23,355.35H219a1.49,1.49,0,0,1-1.5-1.6l2-34.78a1.72,1.72,0,0,1,1.69-1.6h59.22a1.49,1.49,0,0,1,1.5,1.6l-2,34.78A1.71,1.71,0,0,1,278.23,355.35Z" style="fill: rgb(255, 255, 255); opacity: 0.9; transform-origin: 249.705px 336.36px;" class="animable" id="elmlpnydfvdkt"></path></g><g id="el84rz369gg3x"><polygon points="236.08 355.35 224.31 355.35 235.08 317.37 246.85 317.37 236.08 355.35" style="fill: #3F6DB4; opacity: 0.1; transform-origin: 235.58px 336.36px;" class="animable" id="elca2y702bx3m"></polygon></g><g id="eldl0m1i59pf7"><polygon points="245.72 355.35 237.5 355.35 248.27 317.37 256.5 317.37 245.72 355.35" style="fill: #3F6DB4; opacity: 0.1; transform-origin: 247px 336.36px;" class="animable" id="elv7cza40k9rl"></polygon></g><g id="elt3vjtunumb"><polygon points="263.66 355.35 255.44 355.35 266.21 317.37 274.44 317.37 263.66 355.35" style="fill: #3F6DB4; opacity: 0.1; transform-origin: 264.94px 336.36px;" class="animable" id="el9c0l4dhvcm4"></polygon></g><path d="M314.73,353.48l2-34.24a3.88,3.88,0,0,1,3.83-3.62h55.56a3.39,3.39,0,0,1,3.42,3.62l-2,34.24a3.9,3.9,0,0,1-3.84,3.63H318.15A3.4,3.4,0,0,1,314.73,353.48Z" style="fill: #3F6DB4; transform-origin: 347.135px 336.365px;" id="elp5fv4pjfoo" class="animable"></path><path d="M311.93,353.48l2-34.24a3.88,3.88,0,0,1,3.83-3.62h57.79a3.39,3.39,0,0,1,3.42,3.62l-2,34.24a3.9,3.9,0,0,1-3.83,3.63h-57.8A3.38,3.38,0,0,1,311.93,353.48Z" style="fill: rgb(255, 255, 255); transform-origin: 345.449px 336.365px;" id="elfuh438g65km" class="animable"></path><g id="elsttnmmmuyf"><path d="M311.93,353.48l2-34.24a3.88,3.88,0,0,1,3.83-3.62h57.79a3.39,3.39,0,0,1,3.42,3.62l-2,34.24a3.9,3.9,0,0,1-3.83,3.63h-57.8A3.38,3.38,0,0,1,311.93,353.48Z" style="fill: #3F6DB4; opacity: 0.3; transform-origin: 345.449px 336.365px;" class="animable" id="elirafb6zmg1e"></path></g><g id="elllxmctojz5"><rect x="345.87" y="350.17" width="7.7" height="28.15" rx="3.62" style="fill: #3F6DB4; transform-origin: 349.72px 364.245px; transform: rotate(90deg);" class="animable" id="elp80u69xublp"></rect></g><g id="elwesvor6uva"><g style="opacity: 0.6; transform-origin: 349.72px 364.245px;" class="animable" id="el6nmb2u0jt4p"><g id="elo3rrt8u6f8"><rect x="345.87" y="350.17" width="7.7" height="28.15" rx="3.62" style="fill: rgb(255, 255, 255); transform-origin: 349.72px 364.245px; transform: rotate(90deg);" class="animable" id="elrd3cm1pipu"></rect></g></g></g><g id="elkuvurc7za2"><rect x="338.4" y="349.05" width="7.7" height="30.38" rx="3.62" style="fill: rgb(255, 255, 255); transform-origin: 342.25px 364.24px; transform: rotate(90deg);" class="animable" id="elog3a3r56fr8"></rect></g><g id="elfskvrs4sjeu"><rect x="338.4" y="349.05" width="7.7" height="30.38" rx="3.62" style="fill: #3F6DB4; opacity: 0.3; transform-origin: 342.25px 364.24px; transform: rotate(90deg);" class="animable" id="elyjlr6llsw9"></rect></g><g id="elqqfqox2w1nh"><path d="M374,355.35H314.73a1.5,1.5,0,0,1-1.51-1.6l2-34.78a1.71,1.71,0,0,1,1.69-1.6h59.21a1.49,1.49,0,0,1,1.51,1.6l-2,34.78A1.72,1.72,0,0,1,374,355.35Z" style="fill: rgb(255, 255, 255); opacity: 0.9; transform-origin: 345.425px 336.36px;" class="animable" id="elfvz2sl73fz"></path></g><g id="elhdnkh93aez"><polygon points="331.8 355.35 320.02 355.35 330.79 317.37 342.57 317.37 331.8 355.35" style="fill: #3F6DB4; opacity: 0.1; transform-origin: 331.295px 336.36px;" class="animable" id="elp82o77ayqh"></polygon></g><g id="ellnzt7qvglff"><polygon points="341.44 355.35 333.21 355.35 343.99 317.37 352.21 317.37 341.44 355.35" style="fill: #3F6DB4; opacity: 0.1; transform-origin: 342.71px 336.36px;" class="animable" id="elf80nsho2634"></polygon></g><g id="elnidkmmleqoa"><polygon points="359.38 355.35 351.15 355.35 361.93 317.37 370.15 317.37 359.38 355.35" style="fill: #3F6DB4; opacity: 0.1; transform-origin: 360.65px 336.36px;" class="animable" id="elieo8bknglqh"></polygon></g></g><g id="freepik--Connection--inject-66" class="animable animator-hidden" style="transform-origin: 250px 297.714px;"><path d="M153.68,308.8a.58.58,0,0,1-.19,0l-.17-.11a.54.54,0,0,1-.1-.16.46.46,0,0,1,0-.19.51.51,0,0,1,.14-.36.53.53,0,0,1,.55-.11.46.46,0,0,1,.16.11.42.42,0,0,1,.11.16.45.45,0,0,1,0,.2.46.46,0,0,1,0,.19.42.42,0,0,1-.11.16.5.5,0,0,1-.35.15Z" style="fill: #3F6DB4; transform-origin: 153.701px 308.338px;" id="ely79wr1adom" class="animable"></path><path d="M153.18,304.63a.5.5,0,0,1,.5-.5h0a.5.5,0,0,1,.5.5h0a.5.5,0,0,1-.5.5h0A.5.5,0,0,1,153.18,304.63Z" style="fill: #3F6DB4; transform-origin: 153.68px 304.63px;" id="elpcyooh50usn" class="animable"></path><path d="M153.68,301.47a.51.51,0,0,1-.36-.15.44.44,0,0,1-.1-.16.41.41,0,0,1,0-.19.5.5,0,0,1,.14-.35.51.51,0,0,1,.55-.11.46.46,0,0,1,.16.11.36.36,0,0,1,.11.16.43.43,0,0,1,0,.19.41.41,0,0,1,0,.19.53.53,0,0,1-.27.27A.43.43,0,0,1,153.68,301.47Z" style="fill: #3F6DB4; transform-origin: 153.7px 300.972px;" id="el67r4r17m17f" class="animable"></path><path d="M245.49,301a.5.5,0,0,1,.49-.5h0a.5.5,0,0,1,.5.5h0a.5.5,0,0,1-.5.5h0A.49.49,0,0,1,245.49,301Zm-4,0a.51.51,0,0,1,.5-.5h0a.5.5,0,0,1,.5.5h0a.5.5,0,0,1-.5.5h0A.5.5,0,0,1,241.47,301Zm-4,0a.5.5,0,0,1,.5-.5h0a.51.51,0,0,1,.5.5h0a.5.5,0,0,1-.5.5h0A.5.5,0,0,1,237.46,301Zm-4,0a.5.5,0,0,1,.5-.5h0a.5.5,0,0,1,.49.5h0a.49.49,0,0,1-.49.5h0A.5.5,0,0,1,233.45,301Zm-4,0a.51.51,0,0,1,.5-.5h0a.5.5,0,0,1,.5.5h0a.5.5,0,0,1-.5.5h0A.5.5,0,0,1,229.43,301Zm-4,0a.5.5,0,0,1,.5-.5h0a.51.51,0,0,1,.5.5h0a.5.5,0,0,1-.5.5h0A.5.5,0,0,1,225.42,301Zm-4,0a.5.5,0,0,1,.5-.5h0a.51.51,0,0,1,.5.5h0a.5.5,0,0,1-.5.5h0A.5.5,0,0,1,221.41,301Zm-4,0a.51.51,0,0,1,.5-.5h0a.5.5,0,0,1,.5.5h0a.5.5,0,0,1-.5.5h0A.5.5,0,0,1,217.39,301Zm-4,0a.5.5,0,0,1,.5-.5h0a.51.51,0,0,1,.5.5h0a.5.5,0,0,1-.5.5h0A.5.5,0,0,1,213.38,301Zm-4,0a.5.5,0,0,1,.5-.5h0a.51.51,0,0,1,.5.5h0a.5.5,0,0,1-.5.5h0A.5.5,0,0,1,209.37,301Zm-4,0a.51.51,0,0,1,.5-.5h0a.5.5,0,0,1,.5.5h0a.5.5,0,0,1-.5.5h0A.5.5,0,0,1,205.35,301Zm-4,0a.5.5,0,0,1,.5-.5h0a.51.51,0,0,1,.5.5h0a.5.5,0,0,1-.5.5h0A.5.5,0,0,1,201.34,301Zm-4,0a.51.51,0,0,1,.51-.5h0a.51.51,0,0,1,.5.5h0a.5.5,0,0,1-.5.5h0A.5.5,0,0,1,197.32,301Zm-4,0a.51.51,0,0,1,.5-.5h0a.5.5,0,0,1,.5.5h0a.5.5,0,0,1-.5.5h0A.5.5,0,0,1,193.31,301Zm-4,0a.5.5,0,0,1,.5-.5h0a.5.5,0,0,1,.5.5h0a.5.5,0,0,1-.5.5h0A.5.5,0,0,1,189.3,301Zm-4,0a.51.51,0,0,1,.5-.5h0a.51.51,0,0,1,.51.5h0a.5.5,0,0,1-.51.5h0A.5.5,0,0,1,185.28,301Zm-4,0a.5.5,0,0,1,.5-.5h0a.5.5,0,0,1,.5.5h0a.5.5,0,0,1-.5.5h0A.5.5,0,0,1,181.27,301Zm-4,0a.5.5,0,0,1,.5-.5h0a.51.51,0,0,1,.5.5h0a.5.5,0,0,1-.5.5h0A.5.5,0,0,1,177.26,301Zm-4,0a.51.51,0,0,1,.5-.5h0a.5.5,0,0,1,.5.5h0a.5.5,0,0,1-.5.5h0A.5.5,0,0,1,173.24,301Zm-4,0a.51.51,0,0,1,.5-.5h0a.5.5,0,0,1,.5.5h0a.5.5,0,0,1-.5.5h0A.5.5,0,0,1,169.23,301Zm-4,0a.5.5,0,0,1,.5-.5h0a.51.51,0,0,1,.5.5h0a.5.5,0,0,1-.5.5h0A.5.5,0,0,1,165.22,301Zm-4,0a.5.5,0,0,1,.49-.5h0a.5.5,0,0,1,.5.5h0a.5.5,0,0,1-.5.5h0A.49.49,0,0,1,161.21,301Zm-4,0a.51.51,0,0,1,.5-.5h0a.5.5,0,0,1,.5.5h0a.5.5,0,0,1-.5.5h0A.5.5,0,0,1,157.19,301Z" style="fill: #3F6DB4; transform-origin: 201.829px 301.055px;" id="el45sj26i78lj" class="animable"></path><path d="M250,301.47a.41.41,0,0,1-.19,0,.44.44,0,0,1-.16-.1.45.45,0,0,1-.11-.17.41.41,0,0,1,0-.19.43.43,0,0,1,0-.19.42.42,0,0,1,.11-.16.46.46,0,0,1,.16-.11.5.5,0,0,1,.38,0,.46.46,0,0,1,.16.11.47.47,0,0,1,.15.35.41.41,0,0,1,0,.19.45.45,0,0,1-.11.17.44.44,0,0,1-.16.1A.41.41,0,0,1,250,301.47Z" style="fill: #3F6DB4; transform-origin: 250.02px 300.999px;" id="el8u9n16xtewh" class="animable"></path><path d="M250,301.47a.41.41,0,0,1-.19,0,.44.44,0,0,1-.16-.1.45.45,0,0,1-.11-.17.41.41,0,0,1,0-.19.43.43,0,0,1,0-.19.42.42,0,0,1,.11-.16.46.46,0,0,1,.16-.11.5.5,0,0,1,.38,0,.46.46,0,0,1,.16.11.47.47,0,0,1,.15.35.41.41,0,0,1,0,.19.45.45,0,0,1-.11.17.44.44,0,0,1-.16.1A.41.41,0,0,1,250,301.47Z" style="fill: #3F6DB4; transform-origin: 250.02px 300.999px;" id="el3ecf2xmyh6c" class="animable"></path><path d="M249.5,297.5a.5.5,0,0,1,.5-.5h0a.5.5,0,0,1,.5.5h0a.5.5,0,0,1-.5.5h0A.5.5,0,0,1,249.5,297.5Zm0-3.47a.5.5,0,0,1,.5-.5h0a.5.5,0,0,1,.5.5h0a.5.5,0,0,1-.5.5h0A.5.5,0,0,1,249.5,294Zm0-3.47a.5.5,0,0,1,.5-.5h0a.5.5,0,0,1,.5.5h0a.5.5,0,0,1-.5.5h0A.5.5,0,0,1,249.5,290.56Z" style="fill: #3F6DB4; transform-origin: 250px 294.03px;" id="elf2wtumaxaws" class="animable"></path><path d="M250,287.59a.47.47,0,0,1-.35-.15.36.36,0,0,1-.11-.16.43.43,0,0,1,0-.19.41.41,0,0,1,0-.19.39.39,0,0,1,.11-.17.44.44,0,0,1,.16-.1.46.46,0,0,1,.38,0,.44.44,0,0,1,.16.1.45.45,0,0,1,.11.17.41.41,0,0,1,0,.19.43.43,0,0,1,0,.19.36.36,0,0,1-.11.16A.47.47,0,0,1,250,287.59Z" style="fill: #3F6DB4; transform-origin: 250px 287.09px;" id="el9ew4eo2sp8" class="animable"></path><path d="M250,301.47a.41.41,0,0,1-.19,0,.44.44,0,0,1-.16-.1.45.45,0,0,1-.11-.17.41.41,0,0,1,0-.19.43.43,0,0,1,0-.19.42.42,0,0,1,.11-.16.46.46,0,0,1,.16-.11.5.5,0,0,1,.38,0,.46.46,0,0,1,.16.11.47.47,0,0,1,.15.35.41.41,0,0,1,0,.19.45.45,0,0,1-.11.17.44.44,0,0,1-.16.1A.41.41,0,0,1,250,301.47Z" style="fill: #3F6DB4; transform-origin: 250.02px 300.999px;" id="elkk4ilxmug9s" class="animable"></path><path d="M249.5,304.63a.51.51,0,0,1,.5-.5h0a.5.5,0,0,1,.5.5h0a.5.5,0,0,1-.5.5h0A.5.5,0,0,1,249.5,304.63Z" style="fill: #3F6DB4; transform-origin: 250px 304.63px;" id="el2yvayvo4a1n" class="animable"></path><path d="M250,308.8a.51.51,0,0,1-.35-.15.42.42,0,0,1-.11-.16.45.45,0,0,1,0-.2.43.43,0,0,1,0-.19.42.42,0,0,1,.11-.16.51.51,0,0,1,.7,0,.42.42,0,0,1,.11.16.43.43,0,0,1,0,.19.45.45,0,0,1,0,.2.42.42,0,0,1-.11.16A.51.51,0,0,1,250,308.8Z" style="fill: #3F6DB4; transform-origin: 250px 308.3px;" id="ell3zahxq6i4" class="animable"></path><path d="M346.32,308.8a.51.51,0,0,1-.35-.15.55.55,0,0,1-.15-.36.5.5,0,0,1,.85-.35.42.42,0,0,1,.11.16.43.43,0,0,1,0,.19.51.51,0,0,1-.5.51Z" style="fill: #3F6DB4; transform-origin: 346.305px 308.299px;" id="el5q9zgeijuw3" class="animable"></path><path d="M345.82,304.63a.51.51,0,0,1,.5-.5h0a.5.5,0,0,1,.5.5h0a.5.5,0,0,1-.5.5h0A.5.5,0,0,1,345.82,304.63Z" style="fill: #3F6DB4; transform-origin: 346.32px 304.63px;" id="elfeei5g7xnl7" class="animable"></path><path d="M346.32,301.47a.5.5,0,0,1-.35-.14.55.55,0,0,1-.15-.36.51.51,0,0,1,.15-.35.5.5,0,0,1,.7,0,.47.47,0,0,1,.15.35.51.51,0,0,1-.15.36A.5.5,0,0,1,346.32,301.47Z" style="fill: #3F6DB4; transform-origin: 346.32px 300.974px;" id="elix7eirinqfi" class="animable"></path><path d="M341.81,301a.5.5,0,0,1,.5-.5h0a.5.5,0,0,1,.5.5h0a.5.5,0,0,1-.5.5h0A.5.5,0,0,1,341.81,301Zm-4,0a.5.5,0,0,1,.51-.5h0a.5.5,0,0,1,.5.5h0a.5.5,0,0,1-.5.5h0A.5.5,0,0,1,337.79,301Zm-4,0a.5.5,0,0,1,.5-.5h0a.5.5,0,0,1,.5.5h0a.5.5,0,0,1-.5.5h0A.5.5,0,0,1,333.78,301Zm-4,0a.5.5,0,0,1,.5-.5h0a.5.5,0,0,1,.5.5h0a.5.5,0,0,1-.5.5h0A.5.5,0,0,1,329.77,301Zm-4,0a.5.5,0,0,1,.5-.5h0a.5.5,0,0,1,.51.5h0a.5.5,0,0,1-.51.5h0A.5.5,0,0,1,325.75,301Zm-4,0a.5.5,0,0,1,.5-.5h0a.5.5,0,0,1,.5.5h0a.5.5,0,0,1-.5.5h0A.5.5,0,0,1,321.74,301Zm-4,0a.5.5,0,0,1,.5-.5h0a.5.5,0,0,1,.5.5h0a.5.5,0,0,1-.5.5h0A.5.5,0,0,1,317.73,301Zm-4,0a.5.5,0,0,1,.5-.5h0a.5.5,0,0,1,.51.5h0a.5.5,0,0,1-.51.5h0A.5.5,0,0,1,313.71,301Zm-4,0a.5.5,0,0,1,.5-.5h0a.5.5,0,0,1,.5.5h0a.5.5,0,0,1-.5.5h0A.5.5,0,0,1,309.7,301Zm-4,0a.5.5,0,0,1,.5-.5h0a.5.5,0,0,1,.5.5h0a.5.5,0,0,1-.5.5h0A.5.5,0,0,1,305.69,301Zm-4,0a.5.5,0,0,1,.5-.5h0a.5.5,0,0,1,.5.5h0a.5.5,0,0,1-.5.5h0A.5.5,0,0,1,301.67,301Zm-4,0a.5.5,0,0,1,.5-.5h0a.5.5,0,0,1,.5.5h0a.5.5,0,0,1-.5.5h0A.5.5,0,0,1,297.66,301Zm-4,0a.5.5,0,0,1,.5-.5h0a.5.5,0,0,1,.5.5h0a.5.5,0,0,1-.5.5h0A.5.5,0,0,1,293.65,301Zm-4,0a.5.5,0,0,1,.5-.5h0a.5.5,0,0,1,.5.5h0a.5.5,0,0,1-.5.5h0A.5.5,0,0,1,289.63,301Zm-4,0a.5.5,0,0,1,.5-.5h0a.5.5,0,0,1,.5.5h0a.5.5,0,0,1-.5.5h0A.5.5,0,0,1,285.62,301Zm-4,0a.5.5,0,0,1,.5-.5h0a.5.5,0,0,1,.5.5h0a.5.5,0,0,1-.5.5h0A.5.5,0,0,1,281.61,301Zm-4,0a.5.5,0,0,1,.5-.5h0a.5.5,0,0,1,.51.5h0a.5.5,0,0,1-.51.5h0A.5.5,0,0,1,277.59,301Zm-4,0a.5.5,0,0,1,.5-.5h0a.5.5,0,0,1,.5.5h0a.5.5,0,0,1-.5.5h0A.5.5,0,0,1,273.58,301Zm-4,0a.5.5,0,0,1,.5-.5h0a.5.5,0,0,1,.5.5h0a.5.5,0,0,1-.5.5h0A.5.5,0,0,1,269.57,301Zm-4,0a.5.5,0,0,1,.5-.5h0a.5.5,0,0,1,.51.5h0a.5.5,0,0,1-.51.5h0A.5.5,0,0,1,265.55,301Zm-4,0a.5.5,0,0,1,.5-.5h0a.5.5,0,0,1,.5.5h0a.5.5,0,0,1-.5.5h0A.5.5,0,0,1,261.54,301Zm-4,0a.5.5,0,0,1,.5-.5h0a.5.5,0,0,1,.5.5h0a.5.5,0,0,1-.5.5h0A.5.5,0,0,1,257.53,301Zm-4,0a.5.5,0,0,1,.5-.5h0a.5.5,0,0,1,.51.5h0a.5.5,0,0,1-.51.5h0A.5.5,0,0,1,253.51,301Z" style="fill: #3F6DB4; transform-origin: 298.154px 301.055px;" id="eltvt62edf1pr" class="animable"></path><path d="M250,301.47a.41.41,0,0,1-.19,0,.44.44,0,0,1-.16-.1.45.45,0,0,1-.11-.17.41.41,0,0,1,0-.19.43.43,0,0,1,0-.19.42.42,0,0,1,.11-.16.46.46,0,0,1,.16-.11.5.5,0,0,1,.38,0,.46.46,0,0,1,.16.11.47.47,0,0,1,.15.35.41.41,0,0,1,0,.19.45.45,0,0,1-.11.17.44.44,0,0,1-.16.1A.41.41,0,0,1,250,301.47Z" style="fill: #3F6DB4; transform-origin: 250.02px 300.999px;" id="el26emojojjwp" class="animable"></path></g><g id="freepik--Cloud--inject-66" class="animable" style="transform-origin: 253.991px 190.41px;"><path d="M402.55,195.51a59.91,59.91,0,0,0-59.91-59.41H317.89a72.38,72.38,0,0,0-62.77-36.31H207v18.37a72.4,72.4,0,0,0-22.52,38.31A62.32,62.32,0,0,0,188.5,281H386.82a44.18,44.18,0,0,0,15.73-85.47Z" style="fill: #3F6DB4; transform-origin: 278.43px 190.395px;" id="eltebkdxbl8j" class="animable"></path><g id="ellvn96g3dbj"><path d="M402.55,195.51a59.91,59.91,0,0,0-59.91-59.41H317.89a72.38,72.38,0,0,0-62.77-36.31H207v18.37a72.4,72.4,0,0,0-22.52,38.31A62.32,62.32,0,0,0,188.5,281H386.82a44.18,44.18,0,0,0,15.73-85.47Z" style="fill: rgb(255, 255, 255); opacity: 0.7; transform-origin: 278.43px 190.395px;" class="animable" id="elbhb7p53borv"></path></g><path d="M354.38,195.51A59.93,59.93,0,0,0,272,140.45a72.41,72.41,0,0,0-135.76,16A62.32,62.32,0,0,0,140.33,281H338.65a44.18,44.18,0,0,0,15.73-85.47Z" style="fill: #3F6DB4; transform-origin: 230.001px 190.394px;" id="el5sudcmh3mtc" class="animable"></path><g style="clip-path: url(&quot;#freepik--clip-path--inject-66&quot;); transform-origin: 278.191px 190.397px;" id="el6vgd7oaunvb" class="animable"><g id="elt8puyelhkj"><path d="M402.55,195.51a59.93,59.93,0,0,0-82.34-55.06,72.42,72.42,0,0,0-135.77,16A62.32,62.32,0,0,0,188.5,281H386.82a44.18,44.18,0,0,0,15.73-85.47Z" style="opacity: 0.1; transform-origin: 278.191px 190.397px;" class="animable" id="elj6ja8vw51d"></path></g></g><path d="M338.65,282H140.33a63.29,63.29,0,0,1-4.84-126.4A73.41,73.41,0,0,1,207,98.82a72.92,72.92,0,0,1,65.55,40.4,60.89,60.89,0,0,1,82.84,55.62A45.16,45.16,0,0,1,338.65,282ZM207,100.76a71.85,71.85,0,0,0-69.73,55.92,1,1,0,0,1-.89.76,61.35,61.35,0,0,0,4,122.57H338.65A43.21,43.21,0,0,0,354,196.42a1,1,0,0,1-.63-.9,59,59,0,0,0-81-54.17,1,1,0,0,1-1.24-.47A71,71,0,0,0,207,100.76Z" style="fill: #3F6DB4; transform-origin: 230.462px 190.41px;" id="ela71cgaa82nv" class="animable"></path><g id="eljfukssxn2d"><path d="M338.65,282H140.33a63.29,63.29,0,0,1-4.84-126.4A73.41,73.41,0,0,1,207,98.82a72.92,72.92,0,0,1,65.55,40.4,60.89,60.89,0,0,1,82.84,55.62A45.16,45.16,0,0,1,338.65,282ZM207,100.76a71.85,71.85,0,0,0-69.73,55.92,1,1,0,0,1-.89.76,61.35,61.35,0,0,0,4,122.57H338.65A43.21,43.21,0,0,0,354,196.42a1,1,0,0,1-.63-.9,59,59,0,0,0-81-54.17,1,1,0,0,1-1.24-.47A71,71,0,0,0,207,100.76Z" style="fill: rgb(255, 255, 255); opacity: 0.7; transform-origin: 230.462px 190.41px;" class="animable" id="elnjvovb5dwac"></path></g><g id="elur2uv95463"><path d="M186.12,192.6H202a0,0,0,0,1,0,0V280a0,0,0,0,1,0,0H186.12a4.45,4.45,0,0,1-4.45-4.45V197A4.45,4.45,0,0,1,186.12,192.6Z" style="fill: rgb(224, 224, 224); transform-origin: 191.835px 236.3px; transform: rotate(180deg);" class="animable" id="eln2eebswcntl"></path></g><rect x="144.53" y="192.6" width="43.18" height="87.41" rx="4.45" style="fill: rgb(255, 255, 255); transform-origin: 166.12px 236.305px;" id="elj5jtpdstrmm" class="animable"></rect><rect x="144.53" y="261.87" width="43.18" height="0.81" style="fill: rgb(224, 224, 224); transform-origin: 166.12px 262.275px;" id="el0ylr8xgfatam" class="animable"></rect><rect x="144.53" y="244.55" width="43.18" height="0.81" style="fill: rgb(224, 224, 224); transform-origin: 166.12px 244.955px;" id="elive3w5qmw8e" class="animable"></rect><rect x="144.53" y="227.24" width="43.18" height="0.81" style="fill: rgb(224, 224, 224); transform-origin: 166.12px 227.645px;" id="elbjpvtzp2ujb" class="animable"></rect><rect x="144.53" y="209.92" width="43.18" height="0.81" style="fill: rgb(224, 224, 224); transform-origin: 166.12px 210.325px;" id="elrlp04h4s6jl" class="animable"></rect><g id="eliw0d7aq0cw"><path d="M166.06,204.3H151.62A1.65,1.65,0,0,0,150,206h0a1.65,1.65,0,0,0,1.65,1.65h14.44a1.65,1.65,0,0,0,1.65-1.65h0A1.65,1.65,0,0,0,166.06,204.3Z" style="fill: #3F6DB4; opacity: 0.6; transform-origin: 158.87px 205.975px;" class="animable" id="ele1lxqltwq8"></path></g><g id="eltik7ahq2t5k"><path d="M166.06,200H151.62a1.65,1.65,0,0,0-1.65,1.65h0a1.65,1.65,0,0,0,1.65,1.65h14.44a1.65,1.65,0,0,0,1.65-1.65h0A1.65,1.65,0,0,0,166.06,200Z" style="fill: #3F6DB4; opacity: 0.6; transform-origin: 158.84px 201.65px;" class="animable" id="el6pt1u5c8ve"></path></g><g id="elrl9m02bbj79"><path d="M166.06,195.73H151.62a1.65,1.65,0,0,0-1.65,1.65h0a1.65,1.65,0,0,0,1.65,1.65h14.44a1.65,1.65,0,0,0,1.65-1.65h0A1.65,1.65,0,0,0,166.06,195.73Z" style="fill: #3F6DB4; opacity: 0.6; transform-origin: 158.84px 197.38px;" class="animable" id="elavs0oabpce"></path></g><g id="elgnrekde9a6s"><rect x="169.22" y="204.3" width="6.03" height="3.3" style="fill: rgb(235, 235, 235); transform-origin: 172.235px 205.95px; transform: rotate(180deg);" class="animable" id="elwagziuthkdr"></rect></g><g id="ellxh88hnwehq"><rect x="169.22" y="200.01" width="6.03" height="3.3" style="fill: #3F6DB4; transform-origin: 172.235px 201.66px; transform: rotate(180deg);" class="animable" id="el1fvs5yuv6yn"></rect></g><g id="el1oh56h3o0v5"><rect x="169.22" y="195.73" width="6.03" height="3.3" style="fill: rgb(235, 235, 235); transform-origin: 172.235px 197.38px; transform: rotate(180deg);" class="animable" id="elg9a48s7pgk"></rect></g><g id="el393qa1we8sr"><rect x="176.24" y="204.3" width="6.03" height="3.3" style="fill: rgb(235, 235, 235); transform-origin: 179.255px 205.95px; transform: rotate(180deg);" class="animable" id="ellq0bnuyahph"></rect></g><g id="elyxjs6a61zhi"><rect x="176.24" y="200.01" width="6.03" height="3.3" style="fill: rgb(235, 235, 235); transform-origin: 179.255px 201.66px; transform: rotate(180deg);" class="animable" id="elnobipmc6q8j"></rect></g><g id="elrqszexd5c5q"><rect x="176.24" y="195.73" width="6.03" height="3.3" style="fill: #3F6DB4; transform-origin: 179.255px 197.38px; transform: rotate(180deg);" class="animable" id="elyw2w7fh3iaf"></rect></g><path d="M166.06,221.62H151.62a1.65,1.65,0,0,0-1.65,1.65h0a1.65,1.65,0,0,0,1.65,1.65h14.44a1.65,1.65,0,0,0,1.65-1.65h0A1.65,1.65,0,0,0,166.06,221.62Z" style="fill: rgb(235, 235, 235); transform-origin: 158.84px 223.27px;" id="elh4nz92semhk" class="animable"></path><g id="elpjphdbuexca"><path d="M166.06,217.33H151.62A1.65,1.65,0,0,0,150,219h0a1.65,1.65,0,0,0,1.65,1.65h14.44a1.65,1.65,0,0,0,1.65-1.65h0A1.65,1.65,0,0,0,166.06,217.33Z" style="fill: #3F6DB4; opacity: 0.6; transform-origin: 158.87px 218.99px;" class="animable" id="elur7x5vxa16"></path></g><g id="eln2val4jtikc"><path d="M166.06,213.05H151.62A1.65,1.65,0,0,0,150,214.7h0a1.65,1.65,0,0,0,1.65,1.65h14.44a1.65,1.65,0,0,0,1.65-1.65h0A1.65,1.65,0,0,0,166.06,213.05Z" style="fill: #3F6DB4; opacity: 0.6; transform-origin: 158.87px 214.7px;" class="animable" id="elyprozm1ow9o"></path></g><g id="eld1t7eai0wag"><rect x="169.22" y="221.62" width="6.03" height="3.3" style="fill: rgb(235, 235, 235); transform-origin: 172.235px 223.27px; transform: rotate(180deg);" class="animable" id="elonorv0i09rm"></rect></g><g id="elygvn8lmzd6q"><rect x="169.22" y="217.33" width="6.03" height="3.3" style="fill: rgb(235, 235, 235); transform-origin: 172.235px 218.98px; transform: rotate(180deg);" class="animable" id="el7fq9mt0mz48"></rect></g><g id="el8ygoo6ae3bw"><rect x="169.22" y="213.05" width="6.03" height="3.3" style="fill: #3F6DB4; transform-origin: 172.235px 214.7px; transform: rotate(180deg);" class="animable" id="elxzqs2axcfn9"></rect></g><g id="elh7yz620ltxr"><rect x="176.24" y="221.62" width="6.03" height="3.3" style="fill: rgb(235, 235, 235); transform-origin: 179.255px 223.27px; transform: rotate(180deg);" class="animable" id="elzma5sinujpr"></rect></g><g id="eli58a75jmqzb"><rect x="176.24" y="217.33" width="6.03" height="3.3" style="fill: rgb(235, 235, 235); transform-origin: 179.255px 218.98px; transform: rotate(180deg);" class="animable" id="el5od8rbmp25j"></rect></g><g id="el56r2jzqs17h"><rect x="176.24" y="213.05" width="6.03" height="3.3" style="fill: rgb(235, 235, 235); transform-origin: 179.255px 214.7px; transform: rotate(180deg);" class="animable" id="elrvneh8n92ol"></rect></g><g id="el172joyewoml"><path d="M166.06,238.94H151.62a1.65,1.65,0,0,0-1.65,1.65h0a1.65,1.65,0,0,0,1.65,1.65h14.44a1.65,1.65,0,0,0,1.65-1.65h0A1.65,1.65,0,0,0,166.06,238.94Z" style="fill: #3F6DB4; opacity: 0.6; transform-origin: 158.84px 240.59px;" class="animable" id="eltzhbydjd81"></path></g><g id="elrizscng5qo"><path d="M166.06,234.65H151.62A1.65,1.65,0,0,0,150,236.3h0a1.65,1.65,0,0,0,1.65,1.65h14.44a1.65,1.65,0,0,0,1.65-1.65h0A1.65,1.65,0,0,0,166.06,234.65Z" style="fill: #3F6DB4; opacity: 0.6; transform-origin: 158.87px 236.3px;" class="animable" id="elwhywrohnop9"></path></g><g id="elduwtt104aun"><path d="M166.06,230.37H151.62A1.65,1.65,0,0,0,150,232h0a1.65,1.65,0,0,0,1.65,1.65h14.44a1.65,1.65,0,0,0,1.65-1.65h0A1.65,1.65,0,0,0,166.06,230.37Z" style="fill: #3F6DB4; opacity: 0.6; transform-origin: 158.87px 232.01px;" class="animable" id="eljn6r9eo22p"></path></g><g id="elj9muqjfkeqf"><rect x="169.22" y="238.94" width="6.03" height="3.3" style="fill: rgb(235, 235, 235); transform-origin: 172.235px 240.59px; transform: rotate(180deg);" class="animable" id="elkts9ryppe"></rect></g><g id="eltu04y9alqca"><rect x="169.22" y="234.65" width="6.03" height="3.3" style="fill: #3F6DB4; transform-origin: 172.235px 236.3px; transform: rotate(180deg);" class="animable" id="elijdo1sv9ohj"></rect></g><g id="elick8qjdlh2"><rect x="169.22" y="230.37" width="6.03" height="3.3" style="fill: rgb(235, 235, 235); transform-origin: 172.235px 232.02px; transform: rotate(180deg);" class="animable" id="elaojodhn6l5u"></rect></g><g id="elvyl6l7o5pof"><rect x="176.24" y="238.94" width="6.03" height="3.3" style="fill: rgb(235, 235, 235); transform-origin: 179.255px 240.59px; transform: rotate(180deg);" class="animable" id="elotlri1tkbtp"></rect></g><g id="el6yxxo88ib0o"><rect x="176.24" y="234.65" width="6.03" height="3.3" style="fill: rgb(235, 235, 235); transform-origin: 179.255px 236.3px; transform: rotate(180deg);" class="animable" id="elzfupcto9mhr"></rect></g><g id="elw926ecga8k"><rect x="176.24" y="230.37" width="6.03" height="3.3" style="fill: #3F6DB4; transform-origin: 179.255px 232.02px; transform: rotate(180deg);" class="animable" id="eldsi5sh8c66t"></rect></g><g id="elo36ohm8ek4k"><path d="M166.06,256.26H151.62a1.65,1.65,0,0,0-1.65,1.65h0a1.65,1.65,0,0,0,1.65,1.65h14.44a1.65,1.65,0,0,0,1.65-1.65h0A1.65,1.65,0,0,0,166.06,256.26Z" style="fill: #3F6DB4; opacity: 0.6; transform-origin: 158.84px 257.91px;" class="animable" id="eloy2ye0ce1np"></path></g><g id="eloljce2ikvfi"><rect x="149.97" y="251.97" width="17.74" height="3.3" rx="1.65" style="fill: #3F6DB4; opacity: 0.6; transform-origin: 158.84px 253.62px;" class="animable" id="elcngdgjgw4x"></rect></g><g id="elhov40lhny39"><path d="M166.06,247.69H151.62a1.64,1.64,0,0,0-1.65,1.64h0a1.65,1.65,0,0,0,1.65,1.65h14.44a1.65,1.65,0,0,0,1.65-1.65h0A1.64,1.64,0,0,0,166.06,247.69Z" style="fill: #3F6DB4; opacity: 0.6; transform-origin: 158.84px 249.335px;" class="animable" id="elcyhnf8kv7ft"></path></g><g id="elqt6a3wl10g"><rect x="169.22" y="256.26" width="6.03" height="3.3" style="fill: rgb(235, 235, 235); transform-origin: 172.235px 257.91px; transform: rotate(180deg);" class="animable" id="eli20t9e5apn"></rect></g><g id="el2tld9qmzow8"><rect x="169.22" y="251.97" width="6.03" height="3.3" style="fill: #3F6DB4; transform-origin: 172.235px 253.62px; transform: rotate(180deg);" class="animable" id="el2cyxrhlz873"></rect></g><g id="el3pwh9lq9brj"><rect x="169.22" y="247.69" width="6.03" height="3.3" style="fill: rgb(235, 235, 235); transform-origin: 172.235px 249.34px; transform: rotate(180deg);" class="animable" id="elkzlao9vhymc"></rect></g><g id="el7gonl9ll7y7"><rect x="176.24" y="256.26" width="6.03" height="3.3" style="fill: #3F6DB4; transform-origin: 179.255px 257.91px; transform: rotate(180deg);" class="animable" id="el7gq7qubkki"></rect></g><g id="el0p9bk08y4sc"><rect x="176.24" y="251.97" width="6.03" height="3.3" style="fill: rgb(235, 235, 235); transform-origin: 179.255px 253.62px; transform: rotate(180deg);" class="animable" id="ell8kqg1ilbbi"></rect></g><g id="elmu4hmz992cj"><rect x="176.24" y="247.69" width="6.03" height="3.3" style="fill: #3F6DB4; transform-origin: 179.255px 249.34px; transform: rotate(180deg);" class="animable" id="el9haonqk3wqq"></rect></g><g id="elb1zc4ef0qwi"><path d="M166.06,273.58H151.62a1.65,1.65,0,0,0-1.65,1.65h0a1.64,1.64,0,0,0,1.65,1.64h14.44a1.64,1.64,0,0,0,1.65-1.64h0A1.65,1.65,0,0,0,166.06,273.58Z" style="fill: #3F6DB4; opacity: 0.6; transform-origin: 158.84px 275.225px;" class="animable" id="elmqckhv3fzx"></path></g><g id="elu91s537fqz"><path d="M166.06,269.29H151.62a1.65,1.65,0,0,0-1.65,1.65h0a1.65,1.65,0,0,0,1.65,1.65h14.44a1.65,1.65,0,0,0,1.65-1.65h0A1.65,1.65,0,0,0,166.06,269.29Z" style="fill: #3F6DB4; opacity: 0.6; transform-origin: 158.84px 270.94px;" class="animable" id="elbc7ufybe6xk"></path></g><g id="elyxmpe2qfcz"><path d="M166.06,265H151.62a1.65,1.65,0,0,0-1.65,1.65h0a1.65,1.65,0,0,0,1.65,1.65h14.44a1.65,1.65,0,0,0,1.65-1.65h0A1.65,1.65,0,0,0,166.06,265Z" style="fill: #3F6DB4; opacity: 0.6; transform-origin: 158.84px 266.65px;" class="animable" id="elz3vhujq3pdj"></path></g><g id="ely0uvkzqppz"><rect x="169.22" y="273.58" width="6.03" height="3.3" style="fill: #3F6DB4; transform-origin: 172.235px 275.23px; transform: rotate(180deg);" class="animable" id="eldrm7m47toyw"></rect></g><g id="el7b86m1ry01"><rect x="169.22" y="269.29" width="6.03" height="3.3" style="fill: rgb(235, 235, 235); transform-origin: 172.235px 270.94px; transform: rotate(180deg);" class="animable" id="el2k5hlymoefu"></rect></g><g id="eltw3drvztdt"><rect x="169.22" y="265" width="6.03" height="3.3" style="fill: rgb(235, 235, 235); transform-origin: 172.235px 266.65px; transform: rotate(180deg);" class="animable" id="eli521dq9nc8p"></rect></g><g id="el23yt837tg4li"><rect x="176.24" y="273.58" width="6.03" height="3.3" style="fill: rgb(235, 235, 235); transform-origin: 179.255px 275.23px; transform: rotate(180deg);" class="animable" id="elyqmkctorzt7"></rect></g><g id="ela2hcrsw0drh"><rect x="176.24" y="269.29" width="6.03" height="3.3" style="fill: rgb(235, 235, 235); transform-origin: 179.255px 270.94px; transform: rotate(180deg);" class="animable" id="elpki6a2jy7b"></rect></g><g id="elf9brlexqbcp"><rect x="176.24" y="265" width="6.03" height="3.3" style="fill: #3F6DB4; transform-origin: 179.255px 266.65px; transform: rotate(180deg);" class="animable" id="ela0lli4ulb2"></rect></g><g id="elmfabdhj4wc8"><path d="M250.43,151.32h23.44a0,0,0,0,1,0,0V280a0,0,0,0,1,0,0H250.43a6.54,6.54,0,0,1-6.54-6.54V157.87A6.54,6.54,0,0,1,250.43,151.32Z" style="fill: rgb(224, 224, 224); transform-origin: 258.88px 215.66px; transform: rotate(180deg);" class="animable" id="elxko7z1i1v7t"></path></g><rect x="189.2" y="151.32" width="63.56" height="128.68" rx="6.54" style="fill: rgb(255, 255, 255); transform-origin: 220.98px 215.66px;" id="el1nzuowbhjbh" class="animable"></rect><rect x="189.2" y="253.31" width="63.56" height="1.2" style="fill: rgb(224, 224, 224); transform-origin: 220.98px 253.91px;" id="elucz6oshkkn" class="animable"></rect><rect x="189.2" y="227.82" width="63.56" height="1.19" style="fill: rgb(224, 224, 224); transform-origin: 220.98px 228.415px;" id="el1s0l1vxvtjx" class="animable"></rect><rect x="189.2" y="202.32" width="63.56" height="1.19" style="fill: rgb(224, 224, 224); transform-origin: 220.98px 202.915px;" id="elxnt800utjof" class="animable"></rect><rect x="189.2" y="176.82" width="63.56" height="1.2" style="fill: rgb(224, 224, 224); transform-origin: 220.98px 177.42px;" id="elhojokyetbuu" class="animable"></rect><g id="el2vtza39syk"><path d="M220.9,168.55H199.64a2.43,2.43,0,0,0-2.43,2.43h0a2.43,2.43,0,0,0,2.43,2.43H220.9a2.43,2.43,0,0,0,2.43-2.43h0A2.43,2.43,0,0,0,220.9,168.55Z" style="fill: #3F6DB4; opacity: 0.6; transform-origin: 210.27px 170.98px;" class="animable" id="elu7a80h686s"></path></g><g id="elgr39s125bo"><path d="M220.9,162.24H199.64a2.43,2.43,0,0,0-2.43,2.43h0a2.43,2.43,0,0,0,2.43,2.43H220.9a2.43,2.43,0,0,0,2.43-2.43h0A2.43,2.43,0,0,0,220.9,162.24Z" style="fill: #3F6DB4; opacity: 0.6; transform-origin: 210.27px 164.67px;" class="animable" id="elo4gmkjj3v79"></path></g><g id="elj95isaea9ig"><path d="M220.9,155.93H199.64a2.43,2.43,0,0,0-2.43,2.43h0a2.43,2.43,0,0,0,2.43,2.43H220.9a2.43,2.43,0,0,0,2.43-2.43h0A2.43,2.43,0,0,0,220.9,155.93Z" style="fill: #3F6DB4; opacity: 0.6; transform-origin: 210.27px 158.36px;" class="animable" id="eleco0ujsizv9"></path></g><g id="elhd08oz45e3v"><rect x="225.56" y="168.55" width="8.88" height="4.86" style="fill: rgb(235, 235, 235); transform-origin: 230px 170.98px; transform: rotate(180deg);" class="animable" id="eluy37pjqe7nm"></rect></g><g id="elrahvdqm9bhq"><rect x="225.56" y="162.24" width="8.88" height="4.86" style="fill: #3F6DB4; transform-origin: 230px 164.67px; transform: rotate(180deg);" class="animable" id="el9q62g841utr"></rect></g><g id="elt192rn2514a"><rect x="225.56" y="155.93" width="8.88" height="4.86" style="fill: rgb(235, 235, 235); transform-origin: 230px 158.36px; transform: rotate(180deg);" class="animable" id="el2cq4r4rpskf"></rect></g><g id="elaijgku0jcw6"><rect x="235.89" y="168.55" width="8.88" height="4.86" style="fill: rgb(235, 235, 235); transform-origin: 240.33px 170.98px; transform: rotate(180deg);" class="animable" id="elrnprdnet0j"></rect></g><g id="elrw7fxgynni"><rect x="235.89" y="162.24" width="8.88" height="4.86" style="fill: rgb(235, 235, 235); transform-origin: 240.33px 164.67px; transform: rotate(180deg);" class="animable" id="elq8w99n5k1a"></rect></g><g id="elei94krqktki"><rect x="235.89" y="155.93" width="8.88" height="4.86" style="fill: #3F6DB4; transform-origin: 240.33px 158.36px; transform: rotate(180deg);" class="animable" id="elw0nk6vfv7db"></rect></g><g id="elu7zsg19g07"><path d="M220.9,194.05H199.64a2.43,2.43,0,0,0-2.43,2.43h0a2.43,2.43,0,0,0,2.43,2.43H220.9a2.43,2.43,0,0,0,2.43-2.43h0A2.43,2.43,0,0,0,220.9,194.05Z" style="fill: #3F6DB4; opacity: 0.6; transform-origin: 210.27px 196.48px;" class="animable" id="el0apvc76j1d9k"></path></g><g id="elvzmomv2a8q"><path d="M220.9,187.74H199.64a2.43,2.43,0,0,0-2.43,2.43h0a2.43,2.43,0,0,0,2.43,2.43H220.9a2.43,2.43,0,0,0,2.43-2.43h0A2.43,2.43,0,0,0,220.9,187.74Z" style="fill: #3F6DB4; opacity: 0.6; transform-origin: 210.27px 190.17px;" class="animable" id="el2m0oyy8clwf"></path></g><g id="elhdt7ml14ys"><path d="M220.9,181.43H199.64a2.43,2.43,0,0,0-2.43,2.43h0a2.43,2.43,0,0,0,2.43,2.43H220.9a2.43,2.43,0,0,0,2.43-2.43h0A2.43,2.43,0,0,0,220.9,181.43Z" style="fill: #3F6DB4; opacity: 0.6; transform-origin: 210.27px 183.86px;" class="animable" id="ela1k0cupc0t7"></path></g><g id="el48byz2lg2m5"><rect x="225.56" y="194.05" width="8.88" height="4.86" style="fill: rgb(235, 235, 235); transform-origin: 230px 196.48px; transform: rotate(180deg);" class="animable" id="ell5m610h59ye"></rect></g><g id="el4t9lbokfb49"><rect x="225.56" y="187.74" width="8.88" height="4.86" style="fill: rgb(235, 235, 235); transform-origin: 230px 190.17px; transform: rotate(180deg);" class="animable" id="elswa98i2xfo"></rect></g><g id="elkiy5of2u09a"><rect x="225.56" y="181.43" width="8.88" height="4.86" style="fill: #3F6DB4; transform-origin: 230px 183.86px; transform: rotate(180deg);" class="animable" id="elwe6j6saeuvo"></rect></g><g id="elq9dmw74eb2f"><rect x="235.89" y="194.05" width="8.88" height="4.86" style="fill: #3F6DB4; transform-origin: 240.33px 196.48px; transform: rotate(180deg);" class="animable" id="elo9xorgcok9"></rect></g><g id="elcg55yd2msbw"><rect x="235.89" y="187.74" width="8.88" height="4.86" style="fill: rgb(235, 235, 235); transform-origin: 240.33px 190.17px; transform: rotate(180deg);" class="animable" id="elgssdomxyjs9"></rect></g><g id="el5nkvqim830f"><rect x="235.89" y="181.43" width="8.88" height="4.86" style="fill: #3F6DB4; transform-origin: 240.33px 183.86px; transform: rotate(180deg);" class="animable" id="elieb8sg80a6r"></rect></g><g id="el4fqarpcq504"><path d="M220.9,219.55H199.64a2.42,2.42,0,0,0-2.43,2.42h0a2.42,2.42,0,0,0,2.43,2.43H220.9a2.43,2.43,0,0,0,2.43-2.43h0A2.42,2.42,0,0,0,220.9,219.55Z" style="fill: #3F6DB4; opacity: 0.6; transform-origin: 210.27px 221.975px;" class="animable" id="elthttxlk1rqr"></path></g><g id="elg66u2226v38"><path d="M220.9,213.24H199.64a2.42,2.42,0,0,0-2.43,2.42h0a2.42,2.42,0,0,0,2.43,2.43H220.9a2.43,2.43,0,0,0,2.43-2.43h0A2.42,2.42,0,0,0,220.9,213.24Z" style="fill: #3F6DB4; opacity: 0.6; transform-origin: 210.27px 215.665px;" class="animable" id="elzr5meot1ijo"></path></g><g id="elujjokwk82vq"><path d="M220.9,206.93H199.64a2.42,2.42,0,0,0-2.43,2.43h0a2.42,2.42,0,0,0,2.43,2.42H220.9a2.42,2.42,0,0,0,2.43-2.42h0A2.43,2.43,0,0,0,220.9,206.93Z" style="fill: #3F6DB4; opacity: 0.6; transform-origin: 210.27px 209.355px;" class="animable" id="elok735n4vvr"></path></g><g id="elpl4dnk7eo6"><rect x="225.56" y="219.55" width="8.88" height="4.86" style="fill: #3F6DB4; transform-origin: 230px 221.98px; transform: rotate(180deg);" class="animable" id="el01teio7oks3t"></rect></g><g id="el7kuo3s63xyt"><rect x="225.56" y="213.24" width="8.88" height="4.86" style="fill: rgb(235, 235, 235); transform-origin: 230px 215.67px; transform: rotate(180deg);" class="animable" id="el6immnw9ozn6"></rect></g><g id="eluvr6jzvpqgs"><rect x="225.56" y="206.93" width="8.88" height="4.86" style="fill: rgb(235, 235, 235); transform-origin: 230px 209.36px; transform: rotate(180deg);" class="animable" id="elc8x703sj41"></rect></g><g id="eltb87azacbb8"><rect x="235.89" y="219.55" width="8.88" height="4.86" style="fill: rgb(235, 235, 235); transform-origin: 240.33px 221.98px; transform: rotate(180deg);" class="animable" id="elr70o7bf0bw"></rect></g><g id="elyqrco2nxl1"><rect x="235.89" y="213.24" width="8.88" height="4.86" style="fill: rgb(235, 235, 235); transform-origin: 240.33px 215.67px; transform: rotate(180deg);" class="animable" id="elpphr8tvkdbp"></rect></g><g id="elccjow7wkxqs"><rect x="235.89" y="206.93" width="8.88" height="4.86" style="fill: #3F6DB4; transform-origin: 240.33px 209.36px; transform: rotate(180deg);" class="animable" id="eltckac7vdlo"></rect></g><g id="eln57kj3icqb"><path d="M220.9,245H199.64a2.43,2.43,0,0,0-2.43,2.43h0a2.43,2.43,0,0,0,2.43,2.43H220.9a2.43,2.43,0,0,0,2.43-2.43h0A2.43,2.43,0,0,0,220.9,245Z" style="fill: #3F6DB4; opacity: 0.6; transform-origin: 210.27px 247.43px;" class="animable" id="elva8y7olm2fj"></path></g><path d="M220.9,238.73H199.64a2.43,2.43,0,0,0-2.43,2.43h0a2.43,2.43,0,0,0,2.43,2.43H220.9a2.43,2.43,0,0,0,2.43-2.43h0A2.43,2.43,0,0,0,220.9,238.73Z" style="fill: rgb(235, 235, 235); transform-origin: 210.27px 241.16px;" id="el3j5x9gxf8gf" class="animable"></path><g id="el7bk8d33su14"><path d="M220.9,232.42H199.64a2.43,2.43,0,0,0-2.43,2.43h0a2.43,2.43,0,0,0,2.43,2.43H220.9a2.43,2.43,0,0,0,2.43-2.43h0A2.43,2.43,0,0,0,220.9,232.42Z" style="fill: #3F6DB4; opacity: 0.6; transform-origin: 210.27px 234.85px;" class="animable" id="el95oj60koh3"></path></g><g id="elfeg7wmwfzc5"><rect x="225.56" y="245.04" width="8.88" height="4.86" style="fill: rgb(235, 235, 235); transform-origin: 230px 247.47px; transform: rotate(180deg);" class="animable" id="elqxe80mjdgo"></rect></g><g id="elfuhlqcw127l"><rect x="225.56" y="238.73" width="8.88" height="4.86" style="fill: #3F6DB4; transform-origin: 230px 241.16px; transform: rotate(180deg);" class="animable" id="elq636qbex5q"></rect></g><g id="elia4nxio1be"><rect x="225.56" y="232.42" width="8.88" height="4.86" style="fill: rgb(235, 235, 235); transform-origin: 230px 234.85px; transform: rotate(180deg);" class="animable" id="elzsrgtgi94k"></rect></g><g id="elvm4e1f7t6pe"><rect x="235.89" y="245.04" width="8.88" height="4.86" style="fill: #3F6DB4; transform-origin: 240.33px 247.47px; transform: rotate(180deg);" class="animable" id="elfh38y4ftjif"></rect></g><g id="elqhjmliz7kgp"><rect x="235.89" y="238.73" width="8.88" height="4.86" style="fill: #3F6DB4; transform-origin: 240.33px 241.16px; transform: rotate(180deg);" class="animable" id="elke2mezmigpm"></rect></g><g id="elarndg7v7sg7"><rect x="235.89" y="232.42" width="8.88" height="4.86" style="fill: rgb(235, 235, 235); transform-origin: 240.33px 234.85px; transform: rotate(180deg);" class="animable" id="eluf6moxkfqti"></rect></g><g id="ellcb8y094aoh"><path d="M220.9,270.54H199.64a2.43,2.43,0,0,0-2.43,2.43h0a2.43,2.43,0,0,0,2.43,2.43H220.9a2.43,2.43,0,0,0,2.43-2.43h0A2.43,2.43,0,0,0,220.9,270.54Z" style="fill: #3F6DB4; opacity: 0.6; transform-origin: 210.27px 272.97px;" class="animable" id="elja2manqj2e"></path></g><g id="elc8zgpk8yfnv"><path d="M220.9,264.23H199.64a2.43,2.43,0,0,0-2.43,2.43h0a2.43,2.43,0,0,0,2.43,2.43H220.9a2.43,2.43,0,0,0,2.43-2.43h0A2.43,2.43,0,0,0,220.9,264.23Z" style="fill: #3F6DB4; opacity: 0.6; transform-origin: 210.27px 266.66px;" class="animable" id="el3gwun93uptg"></path></g><g id="el9ih0ayk58ph"><path d="M220.9,257.92H199.64a2.43,2.43,0,0,0-2.43,2.43h0a2.43,2.43,0,0,0,2.43,2.43H220.9a2.43,2.43,0,0,0,2.43-2.43h0A2.43,2.43,0,0,0,220.9,257.92Z" style="fill: #3F6DB4; opacity: 0.6; transform-origin: 210.27px 260.35px;" class="animable" id="elrlqiu96o8ao"></path></g><g id="elk7l3956m75h"><rect x="225.56" y="270.54" width="8.88" height="4.86" style="fill: rgb(235, 235, 235); transform-origin: 230px 272.97px; transform: rotate(180deg);" class="animable" id="el1ueh0xeeayo"></rect></g><g id="elgkfmkigbbi"><rect x="225.56" y="264.23" width="8.88" height="4.86" style="fill: rgb(235, 235, 235); transform-origin: 230px 266.66px; transform: rotate(180deg);" class="animable" id="elqh7gmdmyl8"></rect></g><g id="ele7l2iu576d"><rect x="225.56" y="257.92" width="8.88" height="4.86" style="fill: rgb(235, 235, 235); transform-origin: 230px 260.35px; transform: rotate(180deg);" class="animable" id="eljbn0vojf6qj"></rect></g><g id="elgy2ln3cupjq"><rect x="235.89" y="270.54" width="8.88" height="4.86" style="fill: rgb(235, 235, 235); transform-origin: 240.33px 272.97px; transform: rotate(180deg);" class="animable" id="eltwor0168j4"></rect></g><g id="el02ucdm4fg4ey"><rect x="235.89" y="264.23" width="8.88" height="4.86" style="fill: rgb(235, 235, 235); transform-origin: 240.33px 266.66px; transform: rotate(180deg);" class="animable" id="elhqu1twy401"></rect></g><g id="elbow79m950dm"><rect x="235.89" y="257.92" width="8.88" height="4.86" style="fill: #3F6DB4; transform-origin: 240.33px 260.35px; transform: rotate(180deg);" class="animable" id="elmf7q657pwn"></rect></g><g id="eljgnty47ah3l"><path d="M307.9,168.08H328.3a0,0,0,0,1,0,0V280a0,0,0,0,1,0,0H307.9a5.69,5.69,0,0,1-5.69-5.69V173.78A5.69,5.69,0,0,1,307.9,168.08Z" style="fill: rgb(224, 224, 224); transform-origin: 315.255px 224.04px; transform: rotate(180deg);" class="animable" id="eld2a1kgjc3j6"></path></g><rect x="254.65" y="168.08" width="55.28" height="111.92" rx="5.69" style="fill: rgb(255, 255, 255); transform-origin: 282.29px 224.04px;" id="eliizo12ycnyh" class="animable"></rect><rect x="254.65" y="256.79" width="55.28" height="1.04" style="fill: rgb(224, 224, 224); transform-origin: 282.29px 257.31px;" id="eliupe710pt2l" class="animable"></rect><rect x="254.65" y="234.61" width="55.28" height="1.04" style="fill: rgb(224, 224, 224); transform-origin: 282.29px 235.13px;" id="el1hyypbjv3eug" class="animable"></rect><rect x="254.65" y="212.44" width="55.28" height="1.04" style="fill: rgb(224, 224, 224); transform-origin: 282.29px 212.96px;" id="elga5olppigz7" class="animable"></rect><rect x="254.65" y="190.26" width="55.28" height="1.04" style="fill: rgb(224, 224, 224); transform-origin: 282.29px 190.78px;" id="elxhj22osr9y" class="animable"></rect><g id="elec64al7zlr"><path d="M282.22,183.07h-18.5a2.11,2.11,0,0,0-2.11,2.11h0a2.11,2.11,0,0,0,2.11,2.11h18.5a2.11,2.11,0,0,0,2.11-2.11h0A2.11,2.11,0,0,0,282.22,183.07Z" style="fill: #3F6DB4; opacity: 0.6; transform-origin: 272.97px 185.18px;" class="animable" id="eltxvbrsaf10j"></path></g><g id="elg85iv8x0n3q"><path d="M282.22,177.58h-18.5a2.12,2.12,0,0,0-2.11,2.11h0a2.11,2.11,0,0,0,2.11,2.11h18.5a2.11,2.11,0,0,0,2.11-2.11h0A2.12,2.12,0,0,0,282.22,177.58Z" style="fill: #3F6DB4; opacity: 0.6; transform-origin: 272.97px 179.69px;" class="animable" id="elddyx2s7ufoh"></path></g><g id="elegmn3t4ghq5"><path d="M282.22,172.09h-18.5a2.12,2.12,0,0,0-2.11,2.11h0a2.12,2.12,0,0,0,2.11,2.12h18.5a2.12,2.12,0,0,0,2.11-2.12h0A2.12,2.12,0,0,0,282.22,172.09Z" style="fill: #3F6DB4; opacity: 0.6; transform-origin: 272.97px 174.205px;" class="animable" id="elsy5i767qhx"></path></g><g id="elsjrwi2kwa"><rect x="286.27" y="260.8" width="7.72" height="4.22" style="fill: rgb(235, 235, 235); transform-origin: 290.13px 262.91px; transform: rotate(180deg);" class="animable" id="elng5c5mnjje"></rect></g><g id="elk7qms8s8eqp"><rect x="286.27" y="266.29" width="7.72" height="4.22" style="fill: #3F6DB4; transform-origin: 290.13px 268.4px; transform: rotate(180deg);" class="animable" id="elptacxsuuo4"></rect></g><g id="el8hdta5sc4ya"><rect x="286.27" y="271.77" width="7.72" height="4.22" style="fill: rgb(235, 235, 235); transform-origin: 290.13px 273.88px; transform: rotate(180deg);" class="animable" id="elmliy3cv854"></rect></g><g id="elx40k2lr6ank"><rect x="295.25" y="260.8" width="7.72" height="4.22" style="fill: rgb(235, 235, 235); transform-origin: 299.11px 262.91px; transform: rotate(180deg);" class="animable" id="eloqtr39l4zt"></rect></g><g id="elv9b23mo0vr9"><rect x="295.25" y="266.29" width="7.72" height="4.22" style="fill: rgb(235, 235, 235); transform-origin: 299.11px 268.4px; transform: rotate(180deg);" class="animable" id="el5169v1nnfvd"></rect></g><g id="elmp7qnuaruo"><rect x="295.25" y="271.77" width="7.72" height="4.22" style="fill: #3F6DB4; transform-origin: 299.11px 273.88px; transform: rotate(180deg);" class="animable" id="elpvtvitr76s"></rect></g><path d="M282.22,205.24h-18.5a2.12,2.12,0,0,0-2.11,2.12h0a2.12,2.12,0,0,0,2.11,2.11h18.5a2.12,2.12,0,0,0,2.11-2.11h0A2.12,2.12,0,0,0,282.22,205.24Z" style="fill: rgb(235, 235, 235); transform-origin: 272.97px 207.355px;" id="elsud75ddyls" class="animable"></path><g id="eloow2kt75rsa"><path d="M282.22,199.76h-18.5a2.11,2.11,0,0,0-2.11,2.11h0a2.12,2.12,0,0,0,2.11,2.11h18.5a2.12,2.12,0,0,0,2.11-2.11h0A2.11,2.11,0,0,0,282.22,199.76Z" style="fill: #3F6DB4; opacity: 0.6; transform-origin: 272.97px 201.87px;" class="animable" id="elozv2dz06ct"></path></g><g id="eltuemzhivmg"><path d="M282.22,194.27h-18.5a2.11,2.11,0,0,0-2.11,2.11h0a2.11,2.11,0,0,0,2.11,2.11h18.5a2.11,2.11,0,0,0,2.11-2.11h0A2.11,2.11,0,0,0,282.22,194.27Z" style="fill: #3F6DB4; opacity: 0.6; transform-origin: 272.97px 196.38px;" class="animable" id="elvz67vvaspk"></path></g><g id="el7xlmx9lc45v"><rect x="286.27" y="238.62" width="7.72" height="4.22" style="fill: rgb(235, 235, 235); transform-origin: 290.13px 240.73px; transform: rotate(180deg);" class="animable" id="el5t9kl4dyq15"></rect></g><g id="elxlv1w4rdr0h"><rect x="286.27" y="244.11" width="7.72" height="4.22" style="fill: rgb(235, 235, 235); transform-origin: 290.13px 246.22px; transform: rotate(180deg);" class="animable" id="elcz39odxrl56"></rect></g><g id="elo06a32kli2"><rect x="286.27" y="249.6" width="7.72" height="4.22" style="fill: #3F6DB4; transform-origin: 290.13px 251.71px; transform: rotate(180deg);" class="animable" id="elcwde805awr4"></rect></g><g id="elczata9bzoos"><rect x="295.25" y="238.62" width="7.72" height="4.22" style="fill: #3F6DB4; transform-origin: 299.11px 240.73px; transform: rotate(180deg);" class="animable" id="el4dprygswc5g"></rect></g><g id="elm4x4kc57axs"><rect x="295.25" y="244.11" width="7.72" height="4.22" style="fill: rgb(235, 235, 235); transform-origin: 299.11px 246.22px; transform: rotate(180deg);" class="animable" id="elunyg7izgo3"></rect></g><g id="el84zuoahsbm9"><rect x="295.25" y="249.6" width="7.72" height="4.22" style="fill: #3F6DB4; transform-origin: 299.11px 251.71px; transform: rotate(180deg);" class="animable" id="ele42l6t987w"></rect></g><g id="el74tsxh7cqft"><path d="M282.22,227.42h-18.5a2.12,2.12,0,0,0-2.11,2.11h0a2.11,2.11,0,0,0,2.11,2.11h18.5a2.11,2.11,0,0,0,2.11-2.11h0A2.12,2.12,0,0,0,282.22,227.42Z" style="fill: #3F6DB4; opacity: 0.6; transform-origin: 272.97px 229.53px;" class="animable" id="elwm3t3dji5cs"></path></g><g id="el6maejimhs6s"><path d="M282.22,221.93h-18.5a2.12,2.12,0,0,0-2.11,2.11h0a2.12,2.12,0,0,0,2.11,2.12h18.5a2.12,2.12,0,0,0,2.11-2.12h0A2.12,2.12,0,0,0,282.22,221.93Z" style="fill: #3F6DB4; opacity: 0.6; transform-origin: 272.97px 224.045px;" class="animable" id="el0cfg9pb15frp"></path></g><g id="elcded3z478rw"><path d="M282.22,216.45h-18.5a2.11,2.11,0,0,0-2.11,2.11h0a2.12,2.12,0,0,0,2.11,2.11h18.5a2.12,2.12,0,0,0,2.11-2.11h0A2.11,2.11,0,0,0,282.22,216.45Z" style="fill: #3F6DB4; opacity: 0.6; transform-origin: 272.97px 218.56px;" class="animable" id="elzxdarxgjis"></path></g><g id="elwyc7f4hknu"><rect x="286.27" y="216.45" width="7.72" height="4.22" style="fill: #3F6DB4; transform-origin: 290.13px 218.56px; transform: rotate(180deg);" class="animable" id="eleemd0651xe5"></rect></g><g id="el71now3emwv4"><rect x="286.27" y="221.93" width="7.72" height="4.22" style="fill: rgb(235, 235, 235); transform-origin: 290.13px 224.04px; transform: rotate(180deg);" class="animable" id="el3xflu86qj1m"></rect></g><g id="elhlweiook3fr"><rect x="286.27" y="227.42" width="7.72" height="4.22" style="fill: rgb(235, 235, 235); transform-origin: 290.13px 229.53px; transform: rotate(180deg);" class="animable" id="elqlcdiyyov2g"></rect></g><g id="el98eop94a8yr"><rect x="295.25" y="216.45" width="7.72" height="4.22" style="fill: rgb(235, 235, 235); transform-origin: 299.11px 218.56px; transform: rotate(180deg);" class="animable" id="el95xyo2rc2h7"></rect></g><g id="el89k2ybzmkrf"><rect x="295.25" y="221.93" width="7.72" height="4.22" style="fill: rgb(235, 235, 235); transform-origin: 299.11px 224.04px; transform: rotate(180deg);" class="animable" id="elf7r0z41ldts"></rect></g><g id="eltqp3ssvlpn"><rect x="295.25" y="227.42" width="7.72" height="4.22" style="fill: #3F6DB4; transform-origin: 299.11px 229.53px; transform: rotate(180deg);" class="animable" id="elevsffku49mu"></rect></g><g id="elyo498fkpffg"><path d="M282.22,249.6h-18.5a2.11,2.11,0,0,0-2.11,2.11h0a2.12,2.12,0,0,0,2.11,2.11h18.5a2.12,2.12,0,0,0,2.11-2.11h0A2.11,2.11,0,0,0,282.22,249.6Z" style="fill: #3F6DB4; opacity: 0.6; transform-origin: 272.97px 251.71px;" class="animable" id="elb1d1alqactg"></path></g><g id="ely71t88wobz"><path d="M282.22,244.11h-18.5a2.11,2.11,0,0,0-2.11,2.11h0a2.11,2.11,0,0,0,2.11,2.11h18.5a2.11,2.11,0,0,0,2.11-2.11h0A2.11,2.11,0,0,0,282.22,244.11Z" style="fill: #3F6DB4; opacity: 0.6; transform-origin: 272.97px 246.22px;" class="animable" id="el7lmxlhgq9qn"></path></g><g id="elktw797fwppa"><path d="M282.22,238.62h-18.5a2.12,2.12,0,0,0-2.11,2.11h0a2.12,2.12,0,0,0,2.11,2.12h18.5a2.12,2.12,0,0,0,2.11-2.12h0A2.12,2.12,0,0,0,282.22,238.62Z" style="fill: #3F6DB4; opacity: 0.6; transform-origin: 272.97px 240.735px;" class="animable" id="el3dknkzrrubx"></path></g><g id="elepni7ybihf"><rect x="286.27" y="194.27" width="7.72" height="4.22" style="fill: rgb(235, 235, 235); transform-origin: 290.13px 196.38px; transform: rotate(180deg);" class="animable" id="el139dv4uutyf"></rect></g><g id="elt6gdx53qdbj"><rect x="286.27" y="199.76" width="7.72" height="4.22" style="fill: #3F6DB4; transform-origin: 290.13px 201.87px; transform: rotate(180deg);" class="animable" id="elyj2k2i3fdjs"></rect></g><g id="el0cm8df7t863b"><rect x="286.27" y="205.24" width="7.72" height="4.22" style="fill: rgb(235, 235, 235); transform-origin: 290.13px 207.35px; transform: rotate(180deg);" class="animable" id="elkpdzfjd2js"></rect></g><g id="elt67wjcsl3j"><rect x="295.25" y="194.27" width="7.72" height="4.22" style="fill: #3F6DB4; transform-origin: 299.11px 196.38px; transform: rotate(180deg);" class="animable" id="elps0t2wmy7t"></rect></g><g id="elo7wgcxgd2l"><rect x="295.25" y="199.76" width="7.72" height="4.22" style="fill: rgb(235, 235, 235); transform-origin: 299.11px 201.87px; transform: rotate(180deg);" class="animable" id="el365tpogff8f"></rect></g><g id="el0u44arzoajic"><rect x="295.25" y="205.24" width="7.72" height="4.22" style="fill: rgb(235, 235, 235); transform-origin: 299.11px 207.35px; transform: rotate(180deg);" class="animable" id="elvua9lz7kij"></rect></g><g id="elwsg5qv9b5p"><path d="M282.22,271.77h-18.5a2.12,2.12,0,0,0-2.11,2.11h0a2.12,2.12,0,0,0,2.11,2.12h18.5a2.12,2.12,0,0,0,2.11-2.12h0A2.12,2.12,0,0,0,282.22,271.77Z" style="fill: #3F6DB4; opacity: 0.6; transform-origin: 272.97px 273.885px;" class="animable" id="elfk95nrp2pb9"></path></g><g id="el0umx5z4nk2xf"><path d="M282.22,266.29h-18.5a2.11,2.11,0,0,0-2.11,2.11h0a2.12,2.12,0,0,0,2.11,2.11h18.5a2.12,2.12,0,0,0,2.11-2.11h0A2.11,2.11,0,0,0,282.22,266.29Z" style="fill: #3F6DB4; opacity: 0.6; transform-origin: 272.97px 268.4px;" class="animable" id="el72mi53jbmio"></path></g><g id="ela1jotc3bmji"><rect x="261.61" y="260.8" width="22.72" height="4.22" rx="2.11" style="fill: #3F6DB4; opacity: 0.6; transform-origin: 272.97px 262.91px;" class="animable" id="eluaw5aqm5aq"></rect></g><g id="el6deft1dxrvx"><rect x="286.27" y="172.09" width="7.72" height="4.22" style="fill: #3F6DB4; transform-origin: 290.13px 174.2px; transform: rotate(180deg);" class="animable" id="elhf17vl1o23r"></rect></g><g id="el0nsxvq2dpkle"><rect x="286.27" y="177.58" width="7.72" height="4.22" style="fill: rgb(235, 235, 235); transform-origin: 290.13px 179.69px; transform: rotate(180deg);" class="animable" id="ellihoc3yplc"></rect></g><g id="elu32kjwwwl3a"><rect x="286.27" y="183.07" width="7.72" height="4.22" style="fill: rgb(235, 235, 235); transform-origin: 290.13px 185.18px; transform: rotate(180deg);" class="animable" id="elcj0esuyfjrk"></rect></g><g id="elt77c75h0my"><rect x="295.25" y="172.09" width="7.72" height="4.22" style="fill: rgb(235, 235, 235); transform-origin: 299.11px 174.2px; transform: rotate(180deg);" class="animable" id="el8nxuda4vp52"></rect></g><g id="elfmdzy8yvm9q"><rect x="295.25" y="177.58" width="7.72" height="4.22" style="fill: rgb(235, 235, 235); transform-origin: 299.11px 179.69px; transform: rotate(180deg);" class="animable" id="el9y9c3rmennl"></rect></g><g id="elp447zkjbfa"><rect x="295.25" y="183.07" width="7.72" height="4.22" style="fill: #3F6DB4; transform-origin: 299.11px 185.18px; transform: rotate(180deg);" class="animable" id="elvt96rsejlhq"></rect></g></g><defs>     <filter id="active" height="200%">         <feMorphology in="SourceAlpha" result="DILATED" operator="dilate" radius="2"></feMorphology>                <feFlood flood-color="#32DFEC" flood-opacity="1" result="PINK"></feFlood>        <feComposite in="PINK" in2="DILATED" operator="in" result="OUTLINE"></feComposite>        <feMerge>            <feMergeNode in="OUTLINE"></feMergeNode>            <feMergeNode in="SourceGraphic"></feMergeNode>        </feMerge>    </filter>    <filter id="hover" height="200%">        <feMorphology in="SourceAlpha" result="DILATED" operator="dilate" radius="2"></feMorphology>                <feFlood flood-color="#ff0000" flood-opacity="0.5" result="PINK"></feFlood>        <feComposite in="PINK" in2="DILATED" operator="in" result="OUTLINE"></feComposite>        <feMerge>            <feMergeNode in="OUTLINE"></feMergeNode>            <feMergeNode in="SourceGraphic"></feMergeNode>        </feMerge>            <feColorMatrix type="matrix" values="0   0   0   0   0                0   1   0   0   0                0   0   0   0   0                0   0   0   1   0 "></feColorMatrix>    </filter></defs><defs><clipPath id="freepik--clip-path--inject-66"><path d="M354.38,195.51A59.93,59.93,0,0,0,272,140.45a72.41,72.41,0,0,0-135.76,16A62.32,62.32,0,0,0,140.33,281H338.65a44.18,44.18,0,0,0,15.73-85.47Z" style="fill:none"></path></clipPath></defs></svg>